<svg width="142" height="27" viewBox="0 0 142 27" fill="none" xmlns="http://www.w3.org/2000/svg">
<path d="M6.99499 6.82884L7.30579 6.32778C7.41977 6.15031 7.48176 5.99906 7.49175 5.87402C7.50175 5.74899 7.56373 5.59774 7.67772 5.42027C8.12478 5.16875 8.49884 4.89144 8.7999 4.58833C9.12172 4.26432 9.50623 3.99739 9.95344 3.78754C10.2548 3.57818 10.4887 3.43676 10.6551 3.36328C10.8423 3.27931 11.0139 3.17977 11.1697 3.06466C11.2634 3.02268 11.357 2.98069 11.4506 2.93871C11.5442 2.89672 11.6326 2.85476 11.7158 2.81281C11.9134 2.71839 12.1162 2.64478 12.3244 2.59199C12.5117 2.53927 12.6574 2.48149 12.7613 2.41864C12.8237 2.37676 12.8861 2.3453 12.9485 2.32425C13.0109 2.29279 13.0733 2.26654 13.1357 2.24549C13.4583 2.12981 13.7496 2.03507 14.0098 1.96127C14.1555 1.91911 14.2959 1.87697 14.4312 1.83484C14.5769 1.79268 14.7174 1.75054 14.8527 1.70841L15.2271 1.55089C15.3623 1.48794 15.4977 1.46664 15.6332 1.48702C15.8521 1.52794 15.9927 1.53788 16.0552 1.51684C16.1176 1.49579 16.1644 1.48522 16.1957 1.48511C16.3727 1.46368 16.5134 1.48403 16.6178 1.54618C16.6699 1.57725 16.7273 1.60831 16.7899 1.63935C16.8629 1.65993 16.9359 1.68052 17.0089 1.7011C17.134 1.74235 17.2539 1.77319 17.3686 1.79363C17.4832 1.80366 17.5927 1.83454 17.697 1.88627C17.8118 1.92755 17.9005 1.98454 17.9632 2.05724L18.1671 2.25968C18.2714 2.32183 18.3497 2.37364 18.402 2.41513L18.637 2.60184C18.7209 2.77864 18.81 2.95542 18.9044 3.13218C18.9987 3.30895 19.0983 3.4857 19.2031 3.66242C19.4126 4.0263 19.5183 4.45303 19.5199 4.94261C19.3956 5.13053 19.323 5.22453 19.3021 5.2246C19.2709 5.2247 19.2501 5.24561 19.2398 5.28731C19.1255 5.36061 19.0268 5.43387 18.9437 5.50706C18.8606 5.56985 18.7931 5.62737 18.7412 5.67963L18.3986 6.04017L17.9626 6.47915C17.9211 6.51054 17.8483 6.54724 17.7442 6.58926C17.6506 6.62083 17.5987 6.68872 17.5887 6.79292C17.4431 6.85591 17.308 6.96054 17.1835 7.10679C17.0694 7.2426 16.9343 7.33681 16.7782 7.38942C16.6122 7.59832 16.3837 7.78138 16.0926 7.93862C15.9574 8.012 15.8274 8.08535 15.7027 8.15869C15.5779 8.23204 15.4584 8.31057 15.3441 8.39429L14.8919 8.67707C14.8192 8.71899 14.7516 8.7713 14.6893 8.83401C14.5749 8.88648 14.4657 8.93894 14.3617 8.99137C14.2577 9.04381 14.1642 9.09621 14.081 9.14857C13.9147 9.25331 13.7119 9.34774 13.4726 9.43189C13.3582 9.48436 13.2594 9.53678 13.1763 9.58914C13.0931 9.65193 12.9734 9.67317 12.8171 9.65286L12.5041 9.5133C12.3998 9.46157 12.3062 9.50876 12.2234 9.65488C11.9527 9.69746 11.6973 9.65145 11.4573 9.51685C11.2172 9.38224 11.0864 9.18998 11.0647 8.94005C10.814 8.73257 10.7401 8.45157 10.8431 8.09705C10.8842 7.94066 10.9618 7.77373 11.0757 7.59626C11.1275 7.51275 11.1794 7.43445 11.2312 7.36135C11.283 7.27784 11.3296 7.19956 11.371 7.1265C11.4642 6.95952 11.5573 6.77691 11.6504 6.57868C11.7331 6.40131 11.8263 6.22912 11.9299 6.0621C12.2205 5.74861 12.5164 5.45594 12.8176 5.18409C13.1187 4.91223 13.4983 4.72344 13.9563 4.61772C14.102 4.57556 14.2477 4.5334 14.3934 4.49124C14.539 4.44908 14.6743 4.40695 14.7992 4.36486C14.8618 4.40632 14.9243 4.4061 14.9867 4.36423C15.049 4.31193 15.1115 4.31172 15.1742 4.36359C15.2577 4.42581 15.2892 4.49862 15.2687 4.58202C15.2482 4.68626 15.2381 4.78004 15.2384 4.86338C15.1036 5.05133 14.9164 5.14572 14.6768 5.14653C14.4477 5.14731 14.3127 5.27277 14.2719 5.52291C13.6695 6.04579 13.1507 6.67255 12.7157 7.40319C12.7784 7.44465 12.8619 7.49645 12.9662 7.5586C13.0706 7.62074 13.1749 7.66205 13.2792 7.68253C13.446 7.72364 13.6385 7.68132 13.8569 7.55558C14.0752 7.42983 14.2467 7.3355 14.3715 7.27258C14.9539 6.99977 15.4735 6.63342 15.9303 6.17354C16.055 6.06895 16.1848 5.95392 16.3198 5.82846C16.4548 5.70301 16.5533 5.57767 16.6154 5.45246C16.6569 5.40024 16.6931 5.34803 16.7242 5.29584C16.7657 5.24362 16.802 5.19141 16.8331 5.13922C16.8952 5.03484 16.9783 4.95123 17.0822 4.88837C17.1126 4.63827 17.0703 4.45091 16.9553 4.3263C16.8403 4.20169 16.7097 4.07713 16.5634 3.95263C16.4171 3.81771 16.3071 3.63058 16.2334 3.39124C16.1291 3.34993 16.0403 3.27731 15.967 3.17339C15.8937 3.06948 15.805 2.99686 15.7007 2.95555C15.6798 2.95562 15.6486 2.95572 15.6069 2.95586C15.5652 2.94559 15.5079 2.93537 15.4349 2.9252L15.2004 2.89474C14.68 3.00067 14.2741 3.11663 13.9829 3.24262C13.6916 3.36861 13.4004 3.4946 13.1091 3.62059C12.4125 3.99795 11.7577 4.43768 11.1449 4.93976C11.1137 4.9607 11.0773 4.98165 11.0357 5.00263C11.0045 5.02357 10.9681 5.04452 10.9265 5.0655C10.8226 5.12835 10.7602 5.17023 10.7395 5.19113C10.6563 5.25391 10.5681 5.35838 10.4749 5.50453C10.4334 5.56717 10.392 5.62981 10.3505 5.69245C10.3091 5.75509 10.2624 5.81775 10.2105 5.88043L9.88385 6.30341C9.76976 6.44964 9.69215 6.60094 9.65101 6.75733C9.53664 6.82022 9.45371 6.94029 9.40223 7.11755C9.35078 7.30523 9.27834 7.4461 9.18491 7.54017C9.13343 7.71743 9.08186 7.86864 9.0302 7.99382C8.97854 8.119 8.927 8.28063 8.87559 8.47872C8.96998 8.6659 9.05388 8.83229 9.12729 8.97787C9.2007 9.12346 9.25841 9.24826 9.30043 9.35229C9.35287 9.45628 9.4001 9.56028 9.44212 9.66431C9.49455 9.7683 9.54699 9.87229 9.59943 9.97628C9.61058 10.195 9.67898 10.3979 9.80462 10.585C9.91976 10.7512 10.0298 10.954 10.1348 11.1932C10.4386 11.6922 10.7059 12.1965 10.9368 12.7061C11.1677 13.2158 11.435 13.7201 11.7388 14.219C11.8018 14.3647 11.8648 14.5103 11.9278 14.6559C11.9908 14.7911 12.0485 14.9315 12.1011 15.0772C12.2167 15.3685 12.3894 15.6127 12.6192 15.8098C12.6403 15.8827 12.6614 15.9555 12.6825 16.0284C12.7139 16.0908 12.7506 16.1583 12.7925 16.2311C12.8344 16.3039 12.8711 16.3767 12.9026 16.4495C12.9341 16.5119 12.9656 16.5795 12.9971 16.6523C13.0392 16.7772 13.0865 16.9072 13.139 17.0424C13.202 17.1776 13.2702 17.318 13.3436 17.4636C13.3961 17.5989 13.4695 17.7444 13.5638 17.9004C13.6476 18.0251 13.7105 18.1499 13.7526 18.2747C13.8366 18.462 13.9051 18.6961 13.9581 18.9772C14.0111 19.2582 14.0276 19.4926 14.0074 19.6801C14.0083 19.9718 13.9881 20.149 13.9467 20.2116C13.9156 20.2638 13.8689 20.316 13.8066 20.3683C13.7546 20.4102 13.6979 20.577 13.6364 20.8689C13.4397 21.2237 13.2219 21.5266 12.9832 21.7774C12.7341 22.0386 12.5164 22.3519 12.3301 22.7171C12.2265 22.8633 12.0915 23.0096 11.9254 23.156L11.4892 23.5324C11.3541 23.6371 11.2034 23.7313 11.037 23.8152C10.8914 23.8886 10.7511 23.9933 10.6162 24.1292C10.2631 24.4429 9.89404 24.6681 9.50908 24.8048C9.09295 24.9625 8.73419 25.146 8.43282 25.3553C8.30782 25.3557 8.18287 25.3718 8.05798 25.4035C7.93308 25.4351 7.80821 25.472 7.68335 25.5141C7.57933 25.5561 7.47009 25.5982 7.35565 25.6402C7.24121 25.6823 7.12156 25.7244 6.9967 25.7664C6.86146 25.819 6.77306 25.861 6.7315 25.8923C6.68991 25.9133 6.60151 25.9553 6.4663 26.0182C6.17485 26.0817 5.86247 26.1192 5.52918 26.1308C5.19588 26.1423 4.85201 26.107 4.49756 26.0249C4.10124 25.8804 3.79374 25.819 3.57506 25.8405C3.35634 25.8517 3.16336 25.769 2.99609 25.5925C2.89178 25.5512 2.83431 25.4993 2.82369 25.4368C2.81306 25.3744 2.76597 25.312 2.68243 25.2498L2.24376 24.9076C2.16022 24.8453 2.09754 24.7935 2.05573 24.7519C1.7528 24.503 1.50182 24.2121 1.30277 23.8795L1.11421 23.5676C1.04087 23.4429 0.998888 23.3493 0.988259 23.2868C0.946204 23.1724 0.940554 23.0422 0.97131 22.8962C1.0021 22.7607 0.975617 22.6306 0.891861 22.5059C0.912199 22.36 0.911669 22.2037 0.890271 22.0371C0.879572 21.9538 0.874099 21.8757 0.873851 21.8028C0.863188 21.7299 0.85775 21.6622 0.857538 21.5997C0.856973 21.4331 0.882378 21.2455 0.933755 21.037C0.985202 20.8493 0.979499 20.7035 0.916647 20.5995C0.957395 20.3286 1.01921 20.1252 1.10208 19.9895C1.18495 19.8538 1.28861 19.7024 1.41304 19.5353C1.58984 19.4514 1.75103 19.3727 1.89662 19.2993C2.05262 19.2259 2.18779 19.1525 2.30212 19.0792C2.41646 19.0059 2.53602 18.9378 2.66081 18.8749C2.7856 18.8119 2.91038 18.749 3.03517 18.6861C3.17037 18.6231 3.25877 18.5812 3.30037 18.5602L3.53432 18.4344C3.70067 18.3401 3.8983 18.2561 4.12722 18.1824C4.36655 18.1086 4.58502 18.0246 4.78262 17.9302C4.98014 17.8149 5.17253 17.7205 5.35979 17.6469C5.54704 17.5734 5.73943 17.479 5.93695 17.3637C6.07237 17.3633 6.19205 17.3316 6.29601 17.2688C6.41038 17.2059 6.54048 17.1742 6.68631 17.1737C6.74881 17.1735 6.80091 17.1785 6.84262 17.1888C6.88432 17.1991 6.94683 17.2041 7.03017 17.2038L7.37392 17.2026C7.50933 17.2022 7.62398 17.2226 7.71788 17.2639C7.8326 17.3052 7.92656 17.3674 7.99976 17.4505C8.08338 17.5335 8.1981 17.5748 8.34393 17.5743C8.49026 17.7197 8.6106 17.8807 8.70495 18.0575C8.7993 18.2342 8.87804 18.4163 8.94117 18.6036C9.04626 18.874 9.09937 19.1759 9.1005 19.5093C9.0911 19.8114 8.98254 20.0513 8.77481 20.2291C8.57746 20.3965 8.39584 20.595 8.22995 20.8247C7.93864 20.9299 7.61633 21.1081 7.26301 21.3593C7.05461 21.3391 6.86723 21.3762 6.70088 21.4705C6.52415 21.5753 6.3265 21.6541 6.10793 21.7069C6.0038 21.7177 5.88922 21.7181 5.76418 21.7081C5.6287 21.6877 5.51415 21.6985 5.42054 21.7405C5.33724 21.7512 5.23322 21.7932 5.10847 21.8666C4.9941 21.9295 4.88997 21.9402 4.79607 21.8989C4.69177 21.8576 4.61336 21.7745 4.56085 21.6497C4.50835 21.5249 4.50271 21.3999 4.54396 21.2747C4.67863 21.0555 4.86048 20.9247 5.0895 20.8823C5.30811 20.8398 5.54219 20.7505 5.79172 20.6142C6.02047 20.4885 6.2023 20.3524 6.33722 20.2061C6.42027 20.1225 6.49811 20.0389 6.57074 19.9554C6.6538 19.8717 6.73685 19.7881 6.8199 19.7045C6.93405 19.5791 7.05863 19.4537 7.19362 19.3282C7.33903 19.2027 7.36972 19.036 7.28568 18.8279C7.09768 18.6827 6.884 18.6418 6.64463 18.7051C6.40526 18.7684 6.19197 18.842 6.00475 18.926C5.81754 19.01 5.63034 19.0992 5.44316 19.1935C5.25594 19.2775 5.07395 19.3667 4.89718 19.461C4.72042 19.5554 4.53845 19.6497 4.35127 19.7441C4.17447 19.8281 3.99767 19.912 3.82087 19.9959C3.65441 20.059 3.52966 20.1323 3.44661 20.2159C3.39474 20.2786 3.36377 20.3621 3.35371 20.4663C3.34365 20.5705 3.31271 20.6643 3.26091 20.7478C3.11618 21.0712 3.07557 21.3839 3.13909 21.6857C3.19156 21.8002 3.24398 21.8989 3.29635 21.9821C3.35917 22.0756 3.39075 22.1745 3.3911 22.2786C3.54788 22.4344 3.68383 22.5902 3.79894 22.746C3.86158 22.7875 3.91375 22.8133 3.95546 22.8236C3.99716 22.8339 4.05971 22.8493 4.14311 22.8699C4.32058 22.9838 4.57097 23.0976 4.89427 23.2111C5.01942 23.2523 5.21233 23.3141 5.47303 23.3966C5.73373 23.479 5.91616 23.5201 6.02033 23.5197C6.13498 23.5402 6.27033 23.5189 6.42636 23.4559L6.86333 23.2981C7.10252 23.1827 7.34172 23.0673 7.58091 22.9519C7.83049 22.8261 8.08006 22.7003 8.32964 22.5744C8.57921 22.4486 8.82359 22.3279 9.06279 22.2125C9.31236 22.0867 9.55675 21.9661 9.79594 21.8507C10.1597 21.6203 10.4401 21.3485 10.6369 21.0353C10.8237 20.8055 10.9789 20.5237 11.1028 20.19C11.2267 19.8562 11.3193 19.5122 11.3806 19.1578C11.401 19.0536 11.4112 18.9754 11.411 18.9233L11.4103 18.7202C11.2845 18.481 11.2268 18.3406 11.237 18.2989C11.2577 18.2467 11.2419 18.1999 11.1897 18.1584C11.0325 17.8881 10.9434 17.7166 10.9223 17.6437C10.8802 17.5189 10.8435 17.4304 10.812 17.3785C10.7387 17.2641 10.655 17.1602 10.561 17.0668C10.4773 16.9629 10.3832 16.8695 10.2788 16.7865C10.0698 16.6101 9.93358 16.3606 9.86998 16.0379C9.73418 15.9238 9.64518 15.7887 9.60298 15.6325C9.56078 15.4764 9.45106 15.3726 9.2738 15.3212L9.16352 15.0559C9.15296 15.0143 9.1372 14.9727 9.11622 14.9311C9.09521 14.8791 9.07419 14.8218 9.05314 14.7594C8.92765 14.614 8.83337 14.4581 8.7703 14.2916C8.62405 14.1671 8.51949 14.0529 8.45664 13.9489C8.36236 13.793 8.26815 13.6579 8.17401 13.5436C8.02769 13.3983 7.91268 13.2737 7.82899 13.1698C7.78715 13.1179 7.74531 13.0659 7.70346 13.014C7.672 12.9516 7.64575 12.8892 7.6247 12.8267C7.58265 12.7123 7.50414 12.598 7.38916 12.4838C7.32628 12.3694 7.24783 12.2759 7.15384 12.2033C7.07026 12.1307 7.0022 12.0268 6.94965 11.8915C6.64637 11.5384 6.426 11.06 6.28853 10.4563C6.32939 10.2165 6.28698 9.99792 6.16131 9.80043C6.03567 9.61336 6.00361 9.37388 6.06512 9.082C6.17865 8.76912 6.29224 8.47706 6.4059 8.20584C6.46791 8.0598 6.52472 7.91898 6.57635 7.78339C6.62797 7.6478 6.6744 7.51743 6.71565 7.39229C6.83005 7.33982 6.89229 7.26148 6.90235 7.15728C6.9228 7.04263 6.95367 6.93315 6.99499 6.82884ZM31.7132 15.8388C31.8174 15.8489 31.8852 15.8903 31.9167 15.9631C31.9482 16.0255 32.0056 16.0566 32.0889 16.0563C32.1313 16.2541 32.0901 16.3948 31.9654 16.4786C31.8406 16.5519 31.7993 16.6719 31.8416 16.8384C31.6545 16.964 31.4256 17.0429 31.1549 17.0751C30.8737 17.1073 30.6658 17.2174 30.531 17.4053C30.167 17.5837 29.7872 17.6943 29.3915 17.7373C29.1936 17.7588 28.9854 17.7908 28.7668 17.8332C28.5586 17.8652 28.3452 17.9023 28.1266 17.9447C27.8979 18.1018 27.7576 18.1856 27.7055 18.1962C27.6326 18.2068 27.5546 18.2384 27.4715 18.2907C27.2524 18.2081 27.0335 18.1672 26.8148 18.1679C26.5961 18.1687 26.3668 18.1382 26.127 18.0765C26.0125 18.1186 25.8928 18.1398 25.7678 18.1402C25.6428 18.1407 25.5231 18.1619 25.4087 18.204C25.326 18.3917 25.2849 18.5794 25.2856 18.7669C25.2862 18.9648 25.2556 19.1524 25.1937 19.3297L25.0075 19.7053L24.9616 20.0024C24.9412 20.1274 24.9155 20.2265 24.8845 20.2995C24.8431 20.3621 24.7964 20.4352 24.7446 20.5187C24.6928 20.6022 24.6671 20.6961 24.6675 20.8002C24.5223 20.9882 24.4188 21.1813 24.3569 21.3794C24.2952 21.6088 24.1812 21.7915 24.015 21.9275C23.9533 22.1464 23.8549 22.3134 23.7199 22.4285C23.5849 22.5539 23.4551 22.7002 23.3307 22.8673C23.1026 23.1806 22.9004 23.4521 22.7241 23.6819C22.5478 23.9116 22.3141 24.1103 22.023 24.278C21.9194 24.445 21.7948 24.56 21.6492 24.623C21.5453 24.7275 21.4624 24.832 21.4002 24.9363L20.7765 25.3135C20.527 25.4706 20.2878 25.5755 20.0588 25.6284C19.7049 25.7129 19.3611 25.7037 19.0275 25.6006C18.6938 25.4976 18.3808 25.3528 18.0885 25.1663C17.8906 25.1878 17.7395 25.1519 17.635 25.0585C17.5305 24.9755 17.3897 24.9083 17.2124 24.8568C16.9826 24.6492 16.7319 24.4626 16.4605 24.2968C16.1787 24.1207 15.98 23.8922 15.8644 23.6114L15.7215 22.9243C15.6791 22.7162 15.6315 22.508 15.5787 22.2998C15.5365 22.1229 15.5306 21.925 15.5611 21.7061C15.5917 21.5185 15.5962 21.3102 15.5746 21.0811C15.5742 20.9665 15.5739 20.8623 15.5736 20.7686C15.5732 20.6644 15.5677 20.5759 15.557 20.503C15.5461 20.3468 15.5923 20.1539 15.6957 19.9244C15.7577 19.7888 15.8094 19.6636 15.8507 19.5489C15.8919 19.4342 15.9229 19.3351 15.9434 19.2517C15.964 19.1683 15.9845 19.0901 16.0051 19.0171C16.0257 18.9337 16.0463 18.8607 16.0669 18.7981C16.0979 18.746 16.129 18.6938 16.1601 18.6416C16.1911 18.579 16.2222 18.5164 16.2532 18.4538C16.2842 18.3912 16.3153 18.3338 16.3464 18.2816C16.3878 18.2189 16.4293 18.1615 16.4708 18.1093C16.5952 17.9214 16.7404 17.7334 16.9064 17.5453C17.0724 17.3572 17.2385 17.1796 17.4046 17.0124C17.5186 16.8557 17.6328 16.7199 17.7469 16.6049C17.9338 16.4168 18.1104 16.26 18.2766 16.1344C18.4428 16.0088 18.6298 15.8415 18.8374 15.6325C18.8789 15.5698 18.9308 15.5176 18.9931 15.4757L19.1802 15.3501C19.3881 15.2244 19.5805 15.1195 19.7573 15.0356C19.9341 14.9517 20.1369 14.8572 20.3657 14.7523C20.5633 14.6579 20.7245 14.6 20.8495 14.5788C20.9327 14.5577 21.016 14.5418 21.0993 14.5311C21.193 14.5099 21.2919 14.4887 21.396 14.4676L21.771 14.4663C21.8856 14.4659 21.9896 14.4447 22.0833 14.4027C22.0202 14.2363 22.0927 14.1214 22.3008 14.0582C22.509 13.995 22.6651 13.9737 22.7694 13.9941C22.9777 13.9934 23.1445 14.0397 23.2698 14.1331C23.3952 14.2264 23.5101 14.3354 23.6147 14.46C23.8235 14.6052 24.0534 14.8231 24.3044 15.1139C24.3567 15.1658 24.4089 15.1969 24.461 15.2072C24.5131 15.2174 24.5653 15.2485 24.6176 15.3004C24.7013 15.4251 24.759 15.5395 24.7906 15.6435C24.8223 15.7684 24.8904 15.8828 24.9949 15.9866C25.0575 16.0281 25.1202 16.0799 25.1829 16.1422C25.2456 16.2045 25.2876 16.2877 25.3088 16.3918C25.5278 16.4744 25.7259 16.5362 25.9032 16.5773C25.997 16.6186 26.1065 16.6287 26.2314 16.6074C26.3459 16.5862 26.4761 16.5858 26.622 16.6061C26.7158 16.6162 26.8096 16.6419 26.9035 16.6833C26.987 16.7142 27.0808 16.7295 27.1849 16.7292C27.3411 16.7182 27.5129 16.676 27.7001 16.6024C27.877 16.5393 28.0801 16.5282 28.3094 16.5691C28.6221 16.641 28.9502 16.6086 29.2934 16.472C29.6367 16.325 29.9853 16.2301 30.3394 16.1872C30.4435 16.1869 30.5164 16.1814 30.5581 16.1709C30.5997 16.1603 30.6726 16.1549 30.7767 16.1545C30.8806 16.0708 31.0158 16.0079 31.1824 15.9656C31.3489 15.9234 31.5258 15.8811 31.7132 15.8388ZM22.7789 16.8066C22.5699 16.6198 22.4497 16.5004 22.4183 16.4485C22.3764 16.3861 22.3399 16.3498 22.3086 16.3395C22.2145 16.246 22.1102 16.1943 21.9955 16.1843C21.933 16.1741 21.8705 16.1639 21.8079 16.1537C21.7558 16.1434 21.7037 16.1332 21.6516 16.1229C21.318 16.0616 21.0421 16.099 20.8238 16.2351C20.7199 16.3084 20.6108 16.3765 20.4964 16.4394C20.3924 16.5022 20.2885 16.5651 20.1845 16.6279C19.8519 16.8374 19.5611 17.0988 19.3122 17.4121C19.25 17.5165 19.1827 17.6313 19.1102 17.7566C19.0377 17.8818 18.9809 18.0174 18.9397 18.1634C18.857 18.3303 18.7846 18.4816 18.7225 18.6173C18.6605 18.7529 18.609 18.9145 18.5679 19.1022C18.4644 19.3004 18.4025 19.4725 18.3822 19.6184C18.372 19.6914 18.3618 19.7591 18.3516 19.8217C18.3414 19.8738 18.3311 19.9259 18.3209 19.978C18.3108 20.0822 18.2956 20.1916 18.2751 20.3063C18.2546 20.4105 18.2342 20.52 18.2137 20.6346C18.1625 20.8952 18.1372 21.0932 18.1376 21.2286C18.1587 21.2911 18.1902 21.3743 18.2322 21.4783C18.2742 21.5823 18.3162 21.6551 18.358 21.6966C18.4 21.8007 18.4473 21.9151 18.4998 22.0399C18.5523 22.1647 18.5995 22.2583 18.6413 22.3207C18.7564 22.4661 18.8921 22.5594 19.0485 22.6006C19.1319 22.6211 19.2206 22.6469 19.3144 22.6778C19.4082 22.6983 19.5073 22.724 19.6116 22.7549C19.8412 22.8791 19.9976 22.9307 20.0808 22.9096C20.1849 22.8884 20.2474 22.8777 20.2682 22.8777C20.5493 22.8246 20.7885 22.7092 20.9858 22.5315C21.1623 22.3642 21.3702 22.2177 21.6093 22.0919C21.6922 21.9666 21.7751 21.8361 21.858 21.7004C21.9513 21.5647 22.0498 21.4289 22.1535 21.2931C22.2572 21.147 22.3504 21.006 22.4333 20.8703C22.5266 20.7242 22.6146 20.578 22.6975 20.4319C22.7493 20.3692 22.8011 20.2753 22.8527 20.1501C22.8734 20.098 22.8941 20.051 22.9148 20.0093C22.9354 19.9572 22.9561 19.9102 22.9768 19.8685C23.122 19.6909 23.1894 19.5969 23.179 19.5865C23.1685 19.5762 23.1736 19.5449 23.1943 19.4927C23.3286 19.1798 23.3903 18.94 23.3793 18.7734C23.3684 18.6067 23.3678 18.4401 23.3776 18.2734C23.3252 18.1589 23.2779 18.0393 23.2358 17.9145C23.1937 17.7896 23.1516 17.6595 23.1095 17.5243C23.0252 17.2433 22.915 17.0041 22.7789 16.8066ZM41.0944 17.6508C41.3036 17.9105 41.4032 18.0872 41.3931 18.181C41.3829 18.254 41.3781 18.3686 41.3786 18.5248C41.2748 18.6398 41.1919 18.7702 41.1299 18.9163C41.0783 19.0415 40.9849 19.1616 40.8499 19.2766C40.7252 19.3604 40.616 19.418 40.5224 19.4496C40.3975 19.4813 40.2987 19.5493 40.2262 19.6537C40.0805 19.7063 39.9765 19.7587 39.9142 19.811C39.8415 19.8738 39.7166 19.895 39.5394 19.8748C39.0411 20.3765 38.5998 20.7843 38.2154 21.0981C37.8311 21.4119 37.4311 21.7153 37.0154 22.0084C36.7038 22.2803 36.3765 22.5314 36.0336 22.7617C35.6906 22.992 35.3424 23.2224 34.989 23.4528C34.8541 23.5886 34.7606 23.6879 34.7088 23.7506C34.6362 23.8446 34.5323 23.9231 34.3971 23.986C34.1583 24.2264 33.9039 24.4512 33.6337 24.6605C33.4987 24.7651 33.3688 24.8645 33.2441 24.9587C33.1299 25.0632 33.0157 25.1678 32.9014 25.2724C32.6728 25.4398 32.4284 25.5552 32.1682 25.6186C31.8976 25.682 31.6531 25.7662 31.4347 25.8711C31.0395 26.0495 30.7375 26.0818 30.5288 25.9679L29.951 26.0792C29.7949 26.111 29.6021 26.096 29.3727 26.0343C29.3102 26.0137 29.2476 25.9827 29.1849 25.9412C29.1536 25.9205 29.1171 25.8998 29.0753 25.8791C29.044 25.8584 29.0075 25.8376 28.9658 25.8169C28.7571 25.7343 28.5954 25.6463 28.4805 25.553C28.3656 25.4596 28.2663 25.3714 28.1827 25.2884C28.12 25.2261 28.0468 25.1378 27.9631 25.0235C27.8793 24.9092 27.8165 24.8104 27.7745 24.7272C27.6698 24.5609 27.6014 24.358 27.5694 24.1185C27.5373 23.8791 27.4896 23.6449 27.4263 23.4159C27.384 23.2077 27.3207 22.9788 27.2365 22.729C27.1628 22.5001 27.1308 22.2607 27.1403 22.0106C27.1505 21.9272 27.1658 21.8439 27.1864 21.7605C27.2069 21.6771 27.2275 21.5989 27.2481 21.5259L27.387 21.041C27.4491 20.895 27.5059 20.7542 27.5575 20.6186C27.6091 20.483 27.6555 20.3526 27.6968 20.2275C27.7689 19.9981 27.8619 19.7582 27.9756 19.5078C28.0377 19.4034 28.1052 19.3198 28.1779 19.2571C28.2506 19.1943 28.318 19.1108 28.3802 19.0064C28.4113 18.975 28.4371 18.9125 28.4576 18.8186C28.4781 18.7144 28.5039 18.6414 28.535 18.5996L29.0643 18.0197C29.1577 17.9152 29.2459 17.8107 29.3289 17.7063C29.4119 17.6018 29.4896 17.4922 29.5621 17.3774C29.614 17.3043 29.6658 17.2364 29.7177 17.1737C29.7799 17.1006 29.837 17.0379 29.8889 16.9856C29.9408 16.9334 29.9927 16.8759 30.0446 16.8132C30.1069 16.7401 30.1639 16.667 30.2157 16.5939C30.3298 16.4373 30.418 16.338 30.4804 16.2961C30.5323 16.2647 30.579 16.2177 30.6205 16.155C30.7451 16.0296 30.8592 15.899 30.9629 15.7632C31.0666 15.6275 31.1703 15.4865 31.274 15.3403C31.3467 15.2671 31.4193 15.194 31.492 15.1208C31.575 15.0372 31.6529 14.9536 31.7255 14.87C31.8708 14.7133 32.0318 14.5773 32.2085 14.4621C32.406 14.3469 32.5984 14.2525 32.7857 14.1789C32.8897 14.1369 32.9937 14.0949 33.0978 14.0529C33.2017 14.0004 33.3109 13.948 33.4254 13.8955C33.5398 13.843 33.6385 13.7906 33.7217 13.7383C33.8049 13.6859 33.9036 13.6335 34.018 13.581C34.1429 13.5285 34.2573 13.4969 34.3615 13.4861C34.4552 13.4753 34.5488 13.4229 34.6422 13.3289C34.7673 13.3493 34.8818 13.3281 34.9857 13.2652C35.0897 13.2024 35.1937 13.1499 35.2977 13.1079C35.4018 13.0971 35.5008 13.0968 35.5946 13.1069C35.6884 13.1274 35.7664 13.1063 35.8287 13.0436C35.881 13.0851 35.9487 13.1057 36.0321 13.1054C36.105 13.1052 36.1623 13.1258 36.2041 13.1673C36.4022 13.2187 36.5277 13.3642 36.5806 13.6036C36.6234 13.9159 36.5463 14.2391 36.3495 14.5731C36.1528 14.9071 35.9817 15.1577 35.8365 15.3248C35.6604 15.6171 35.4008 15.868 35.0578 16.0775C34.8182 16.0783 34.563 16.0948 34.2923 16.127C34.0112 16.1592 33.7768 16.1547 33.5891 16.1137C33.5374 16.2076 33.4803 16.2651 33.4178 16.2862C33.3346 16.3177 33.3192 16.375 33.3715 16.4582C32.6653 17.0648 32.0424 17.7075 31.5031 18.3864C30.9637 19.0653 30.5393 19.8637 30.2299 20.7814C30.1166 21.1568 30.0133 21.4123 29.92 21.5481C29.8164 21.6942 29.7648 21.8559 29.7654 22.033C29.8919 22.47 30.1015 22.8391 30.3942 23.1402C30.6869 23.4413 30.9791 23.6122 31.2709 23.6529C31.6044 23.6934 31.9011 23.6299 32.1609 23.4624C32.4311 23.2844 32.6754 23.1377 32.8938 23.0224C33.0393 22.9177 33.1848 22.8183 33.3303 22.724C33.4758 22.6298 33.6161 22.5407 33.7513 22.457L34.6401 21.9227C34.7233 21.8807 34.8064 21.8336 34.8896 21.7812C34.9728 21.7288 35.0559 21.6713 35.139 21.6085C35.3884 21.4306 35.6326 21.2474 35.8715 21.0591C35.9858 20.9754 36.0949 20.8917 36.1988 20.808C36.3131 20.7139 36.4274 20.625 36.5417 20.5412C36.6354 20.5305 36.7134 20.4938 36.7757 20.4311C36.8276 20.3788 36.9056 20.3525 37.0098 20.3521C37.3836 20.0175 37.7889 19.7193 38.2255 19.4574C38.6621 19.1955 39.1195 18.9283 39.5978 18.6559C39.7639 18.4886 39.9145 18.3579 40.0496 18.2637C40.1847 18.1695 40.3353 18.0388 40.5014 17.8715C40.6472 17.871 40.7513 17.8342 40.8135 17.7611C40.8758 17.688 40.9694 17.6512 41.0944 17.6508ZM45.6906 9.16639L46.0035 9.25908C46.0453 9.31102 46.0663 9.37345 46.0666 9.44637C46.0668 9.49845 46.0982 9.55043 46.1609 9.6023C46.1198 9.78994 46.084 9.98277 46.0535 10.1808C46.0229 10.3788 46.0079 10.5716 46.0085 10.7591C46.0088 10.832 46.0351 10.9048 46.0874 10.9776C46.1397 11.0503 46.166 11.1127 46.1662 11.1648C46.0628 11.4047 45.9852 11.5508 45.9333 11.6031C45.8814 11.6553 45.8555 11.7075 45.8557 11.7596C45.7517 11.8016 45.6737 11.8644 45.6219 11.9479C45.5701 12.0314 45.4817 12.0734 45.3567 12.0738C45.3153 12.1364 45.2686 12.1835 45.2166 12.2149C45.1542 12.2568 45.118 12.3142 45.1078 12.3871C44.7646 12.5341 44.3895 12.525 43.9827 12.3597C43.8675 12.1622 43.7212 12.0273 43.5438 11.9549C43.2717 11.56 43.2597 11.0913 43.5078 10.5488C43.5491 10.4445 43.5956 10.335 43.6473 10.2202C43.699 10.1054 43.7456 10.0272 43.7872 9.98535C44.0054 9.82836 44.1717 9.72363 44.2861 9.67116C44.3277 9.65018 44.3693 9.62921 44.4109 9.60823C44.4629 9.57681 44.5096 9.5454 44.5512 9.51401C44.6239 9.46168 44.7331 9.40922 44.8788 9.35665C44.9412 9.3356 44.9985 9.32499 45.0505 9.32481C45.1339 9.32453 45.2119 9.30343 45.2847 9.26152C45.3263 9.25096 45.3628 9.24042 45.394 9.2299C45.4356 9.21934 45.472 9.2088 45.5032 9.19828C45.5865 9.17716 45.649 9.16653 45.6906 9.16639ZM41.0501 23.026L41.2066 23.0879C41.3938 23.004 41.6228 22.9719 41.8937 22.9918C42.1751 23.0117 42.3937 22.9693 42.5496 22.8646C42.6535 22.7809 42.7262 22.7182 42.7677 22.6764C42.83 22.6137 42.9028 22.5926 42.9862 22.6131C43.3191 22.487 43.5999 22.3611 43.8287 22.2353C44.0678 22.1095 44.3175 22.0149 44.5777 21.9515C44.7442 21.8884 44.8897 21.7942 45.0143 21.6688C45.4409 21.5319 45.7996 21.338 46.0904 21.087C46.3917 20.836 46.7189 20.5692 47.0721 20.2868C47.3632 20.1191 47.6075 19.9725 47.805 19.8468C48.0025 19.7211 48.2155 19.5641 48.444 19.3759C48.4957 19.2611 48.5527 19.1828 48.6151 19.1409C48.6671 19.1095 48.7241 19.0416 48.7863 18.9372C49.1613 18.9359 49.3701 19.0811 49.4128 19.3726C49.3094 19.6021 49.1694 19.7901 48.9928 19.9365C48.8058 20.0934 48.6449 20.2606 48.5101 20.4381C48.3438 20.5429 48.2087 20.6371 48.1048 20.7208C48.0009 20.8045 47.8972 20.9298 47.7936 21.0968C47.7832 21.0969 47.7208 21.144 47.6066 21.2381C47.5027 21.3322 47.4404 21.3793 47.4196 21.3793C47.2536 21.5778 47.129 21.698 47.0458 21.74C46.9626 21.7819 46.8171 21.8918 46.6094 22.0696C46.4748 22.2992 46.2879 22.4874 46.0488 22.634C45.6023 23.0626 45.1296 23.4236 44.6306 23.7169C44.3707 23.8637 44.1264 24.0155 43.8978 24.1726C43.6691 24.3192 43.4508 24.4657 43.243 24.6123C43.139 24.6751 43.0663 24.7327 43.0248 24.7849C42.9833 24.8371 42.9107 24.9051 42.8068 24.9888C42.7029 25.0724 42.5417 25.1563 42.3232 25.2404C42.1048 25.3245 41.9123 25.398 41.7459 25.4611C41.6107 25.5449 41.4964 25.6078 41.4028 25.6498C40.9341 25.6722 40.5797 25.6005 40.3395 25.4346C40.0682 25.2897 39.8595 25.1758 39.7134 25.093C39.5672 25.0102 39.4418 24.8752 39.337 24.688C39.097 24.5743 38.9557 24.382 38.9131 24.1113C38.8918 23.9656 38.8653 23.825 38.8336 23.6897C38.8019 23.5544 38.7702 23.4191 38.7385 23.2838C38.7173 23.1797 38.696 23.06 38.6747 22.9246C38.6535 22.7893 38.653 22.6487 38.6733 22.5028C38.7246 22.263 38.755 22.0181 38.7646 21.7681C38.7742 21.5389 38.8255 21.3147 38.9185 21.0957C39.0116 20.887 39.0681 20.6577 39.0881 20.4076C39.1081 20.1575 39.1646 19.9282 39.2576 19.7195C39.3923 19.5107 39.4492 19.3959 39.4283 19.3752C39.4179 19.3648 39.423 19.3335 39.4436 19.2814L39.5836 19.0934C39.6147 19.0516 39.6614 18.9786 39.7235 18.8742L39.9094 18.4048C40.0026 18.2274 40.0958 18.0812 40.1892 17.9663C40.2825 17.841 40.3653 17.6637 40.4374 17.4343C40.489 17.2882 40.5459 17.1735 40.6081 17.0899C40.6496 17.0377 40.6859 16.9855 40.7169 16.9333C40.7584 16.8707 40.7999 16.808 40.8413 16.7454C40.893 16.641 40.9447 16.5107 40.9962 16.3542C41.0168 16.2812 41.0374 16.2135 41.058 16.1509C41.089 16.0779 41.12 16.0048 41.1511 15.9318C41.213 15.7649 41.2905 15.598 41.3837 15.431C41.4769 15.264 41.5753 15.097 41.6789 14.93C41.7617 14.7631 41.8342 14.6378 41.8964 14.5543C41.9586 14.4707 42.0834 14.4182 42.2709 14.3968C42.3645 14.3756 42.4583 14.3805 42.5522 14.4114C42.6668 14.4423 42.771 14.4367 42.8646 14.3948C43.135 14.2688 43.3223 14.2057 43.4265 14.2053C43.5306 14.205 43.6034 14.1735 43.6449 14.1109C43.8637 14.1205 44.0306 14.1929 44.1456 14.3279C44.2606 14.4525 44.3861 14.5771 44.5219 14.7016C44.3989 15.3062 44.2599 15.7702 44.1047 16.0937C43.9496 16.4171 43.7789 16.7563 43.5926 17.1111C43.489 17.2781 43.3854 17.4659 43.282 17.6746C43.1785 17.8833 43.0854 18.0711 43.0026 18.2381C42.8992 18.4676 42.7906 18.6711 42.6766 18.8485C42.5419 19.0573 42.4436 19.2608 42.3818 19.4589L42.2422 19.7563C42.1801 19.8815 42.1335 19.9806 42.1025 20.0536C42.0819 20.1266 42.0562 20.1996 42.0252 20.2726C42.0045 20.3352 41.9735 20.3926 41.932 20.4448C41.8905 20.4971 41.8542 20.5545 41.8232 20.6171C41.7921 20.6693 41.761 20.7214 41.73 20.7736C41.6679 20.8988 41.6058 21.0241 41.5437 21.1493C41.4817 21.2745 41.43 21.4101 41.3889 21.556C41.2855 21.7856 41.2235 21.9368 41.2029 22.0098C41.1926 22.0307 41.1822 22.0568 41.1719 22.088C41.1616 22.1089 41.1512 22.1298 41.1409 22.1506C41.1 22.38 41.0381 22.5677 40.9553 22.7138C40.8725 22.8599 40.9041 22.964 41.0501 23.026ZM56.9955 16.0968L56.9651 16.347C56.9861 16.4198 56.9657 16.5449 56.9038 16.7222C56.8001 16.8475 56.738 16.9831 56.7177 17.129C56.6763 17.2125 56.6401 17.2856 56.6091 17.3482C56.578 17.4108 56.5523 17.4942 56.5318 17.5984C56.4905 17.7236 56.4754 17.8695 56.4864 18.0361C56.4971 18.1194 56.4974 18.2027 56.4872 18.2861C56.4875 18.359 56.4825 18.4319 56.4724 18.5049C56.4315 18.7342 56.401 18.9583 56.3809 19.1771C56.3608 19.3959 56.3407 19.6199 56.3207 19.8492C56.3214 20.0783 56.3015 20.3388 56.2608 20.6306C56.2201 20.9224 56.1794 21.183 56.1385 21.4123C56.2328 21.5786 56.2854 21.7347 56.2963 21.8805C56.3073 22.0367 56.3806 22.1719 56.5164 22.286C56.9329 22.2221 57.2659 22.122 57.5154 21.9857C57.765 21.8495 58.0039 21.656 58.2322 21.4052C58.3986 21.3317 58.5286 21.2583 58.6221 21.1851C58.7052 21.1119 58.8247 21.0282 58.9806 20.9339L59.2298 20.683C59.4793 20.5468 59.6196 20.463 59.6508 20.4316C59.6716 20.4107 59.6975 20.3898 59.7287 20.3689C59.7703 20.3479 59.8119 20.3269 59.8535 20.3059C60.2069 20.0756 60.4769 19.8351 60.6635 19.5844C60.8194 19.4589 60.9491 19.3283 61.0528 19.1925C61.1358 19.0776 61.2969 18.9677 61.5361 18.8627C61.671 18.6956 61.8215 18.5545 61.9878 18.4393C62.1541 18.3242 62.3046 18.183 62.4395 18.0159C62.5541 18.0155 62.6375 18.0361 62.6897 18.0776C62.721 18.0983 62.7523 18.119 62.7837 18.1397C62.8254 18.1604 62.8671 18.1811 62.9089 18.2018C62.9719 18.3683 62.9829 18.5401 62.9419 18.7173C62.9008 18.8945 62.8284 19.0563 62.7248 19.2024C62.6211 19.3382 62.5693 19.4217 62.5694 19.453C62.5694 19.4738 62.5591 19.4947 62.5383 19.5156C62.4761 19.5887 62.3982 19.6671 62.3047 19.7507C62.2112 19.824 62.1334 19.9024 62.0712 19.9859C61.9676 20.1738 61.8846 20.2678 61.8221 20.268C61.7596 20.2682 61.7076 20.2892 61.6661 20.331C61.479 20.4463 61.3491 20.53 61.2763 20.5824C61.1932 20.6556 61.0737 20.7393 60.9178 20.8336C60.6994 20.9489 60.5643 21.0327 60.5124 21.085C60.4605 21.1372 60.4189 21.1686 60.3877 21.1791C60.1387 21.4612 59.8947 21.6964 59.6557 21.8847C59.4375 22.0521 59.204 22.2873 58.955 22.5902C58.8719 22.653 58.7887 22.7158 58.7056 22.7786C58.6225 22.8414 58.5499 22.925 58.4877 23.0293C58.3006 23.155 58.15 23.2805 58.0359 23.4059C57.9217 23.5313 57.792 23.6775 57.6467 23.8447C57.5219 23.9076 57.3868 23.9966 57.2414 24.1117C57.0648 24.2477 56.9088 24.3472 56.7736 24.4101C56.7217 24.4416 56.6333 24.4888 56.5085 24.5517C56.4045 24.6041 56.3056 24.6305 56.2119 24.6308C55.9724 24.6733 55.7432 24.6532 55.5242 24.5706C55.326 24.4984 55.1279 24.4366 54.9298 24.3852C54.846 24.2604 54.7415 24.1566 54.6162 24.0737C54.428 23.8452 54.2916 23.5748 54.2072 23.2626C54.1228 22.9504 54.0384 22.6173 53.9538 22.2634C53.7668 22.3891 53.611 22.525 53.4865 22.6713C53.362 22.828 53.175 22.964 52.9254 23.0794C52.7177 23.2781 52.5048 23.4767 52.2867 23.6754C52.0686 23.8636 51.8401 24.0467 51.6011 24.2246C51.3725 24.4024 51.1388 24.5907 50.8999 24.7894C50.6609 24.9778 50.422 25.1713 50.1831 25.37C50.017 25.5372 49.9026 25.6001 49.84 25.5587C49.6533 25.7885 49.3202 25.8625 48.8407 25.7808C48.6738 25.698 48.486 25.6258 48.2775 25.564C48.1315 25.5228 47.9647 25.4609 47.7769 25.3782C47.4225 25.3169 47.1251 25.1616 46.8847 24.9124C46.6442 24.6632 46.4401 24.3723 46.2723 24.0395C46.2092 23.8626 46.1618 23.7065 46.1301 23.5712C46.1194 23.4984 46.1036 23.4203 46.0824 23.337C46.0613 23.2538 46.0402 23.1653 46.019 23.0716C46.008 22.8946 45.9763 22.754 45.9239 22.6501C45.8818 22.5356 45.8814 22.4262 45.9227 22.3219C45.8809 22.27 45.8703 22.2023 45.8908 22.1189C45.9113 22.0147 45.9214 21.9365 45.9213 21.8844C45.8994 21.5928 45.9244 21.2803 45.9962 20.9467C46.068 20.6131 46.1659 20.3107 46.29 20.0394C46.3522 19.935 46.4351 19.8306 46.5389 19.7261C46.5908 19.6634 46.6219 19.6008 46.6321 19.5383C46.6423 19.4861 46.6734 19.434 46.7253 19.3817C46.7772 19.319 46.8394 19.2563 46.9121 19.1936C47.016 19.1099 47.0887 19.0471 47.1303 19.0053C47.1821 18.9322 47.2339 18.8643 47.2858 18.8017C47.3481 18.7285 47.4156 18.6658 47.4883 18.6135C47.561 18.5611 47.6286 18.5036 47.6908 18.4409C47.7531 18.3782 47.8154 18.3155 47.8777 18.2528C47.9504 18.1796 48.0074 18.1065 48.0488 18.0334C48.1006 17.9499 48.1786 17.8872 48.2826 17.8452C48.3654 17.699 48.4588 17.5789 48.5626 17.4848C48.6665 17.3907 48.7807 17.2914 48.9054 17.1868C49.2581 16.7585 49.6943 16.3924 50.2141 16.0886C50.7444 15.7847 51.212 15.4498 51.617 15.0838C51.7626 15.0208 51.8874 14.9475 51.9912 14.8638C52.0951 14.7801 52.199 14.6964 52.3029 14.6128C52.5625 14.3827 52.8435 14.3088 53.1459 14.3911L53.9591 14.6071C54.1681 14.7939 54.3719 14.9807 54.5704 15.1676C54.769 15.3544 54.9415 15.5621 55.0882 15.7908C55.161 15.7802 55.2391 15.7747 55.3225 15.7744C55.4058 15.7637 55.4943 15.7634 55.5881 15.7735C55.7757 15.7937 55.9735 15.7774 56.1817 15.7246C56.2442 15.7244 56.3066 15.7086 56.369 15.6771C56.4314 15.6456 56.4834 15.6298 56.5251 15.6297C56.838 15.7328 56.9947 15.8885 56.9955 16.0968ZM52.8721 16.5796C52.3105 16.8523 51.8012 17.1718 51.3441 17.5379C50.887 17.904 50.4508 18.2961 50.0355 18.7142C49.9836 18.7665 49.9265 18.8188 49.8642 18.871C49.8123 18.9129 49.7603 18.9599 49.7084 19.0122C49.6565 19.054 49.6046 19.1011 49.5526 19.1534C49.5007 19.2056 49.454 19.2579 49.4126 19.3101C49.3296 19.4145 49.2519 19.5398 49.1795 19.6859C49.107 19.832 49.0398 19.9676 48.9777 20.0928C48.957 20.1345 48.9363 20.1763 48.9156 20.218C48.8949 20.2493 48.8742 20.2755 48.8534 20.2964C48.8326 20.3173 48.8119 20.3434 48.7912 20.3747C48.7704 20.406 48.7497 20.4373 48.729 20.4687C48.6877 20.573 48.6724 20.6772 48.6832 20.7813C48.6938 20.8542 48.6994 20.9688 48.7 21.125L48.701 21.4375C48.7012 21.5 48.712 21.6041 48.7333 21.7499C48.7966 21.9789 48.8286 22.2079 48.8294 22.4371C48.83 22.6037 48.8463 22.8068 48.8783 23.0463C48.9104 23.2858 48.9891 23.447 49.1144 23.5299C49.2501 23.6127 49.3803 23.6331 49.5052 23.591C49.6509 23.5385 49.7705 23.5068 49.8643 23.4961C50.5915 22.9311 51.277 22.3402 51.9208 21.7235C52.5645 21.1067 53.1351 20.412 53.6324 19.6395C53.589 19.1293 53.5821 18.6032 53.6115 18.0615C53.641 17.5509 53.5925 17.0771 53.466 16.6401C53.3825 16.5883 53.2835 16.573 53.169 16.5942C53.0857 16.6049 52.9867 16.6 52.8721 16.5796ZM70.4686 17.3637C70.6771 17.415 70.8284 17.4875 70.9224 17.5809C70.9956 17.6536 71.0323 17.7368 71.0327 17.8305C70.8668 18.0602 70.7683 18.2116 70.7373 18.2846C70.7063 18.3577 70.6388 18.4152 70.5348 18.4572C70.4001 18.666 70.2549 18.8644 70.0993 19.0524C69.9541 19.23 69.7932 19.4024 69.6167 19.5697C69.2948 19.8833 68.9783 20.2437 68.6672 20.651C68.5323 20.7869 68.4389 20.8914 68.387 20.9645C68.3352 21.0376 68.2418 21.1421 68.1068 21.278C67.8574 21.4559 67.6497 21.6389 67.4837 21.8269C67.3903 21.9314 67.2917 22.0307 67.1878 22.1248C67.0944 22.2085 66.9957 22.2921 66.8918 22.3758C66.8399 22.4177 66.7879 22.4595 66.736 22.5014C66.6944 22.5327 66.6477 22.5694 66.5957 22.6112C66.5542 22.653 66.5075 22.6948 66.4555 22.7367C66.4036 22.7785 66.3517 22.8256 66.2997 22.8778C66.2167 22.9615 66.1232 23.0451 66.0193 23.1288C65.9778 23.1602 65.931 23.1968 65.8791 23.2386C65.8375 23.27 65.7908 23.3067 65.7388 23.3485C65.6143 23.4947 65.4898 23.641 65.3653 23.7873C65.2408 23.9335 65.1164 24.0902 64.9919 24.2573C64.7735 24.3622 64.5656 24.4879 64.3682 24.6344C64.1812 24.7704 63.9628 24.8962 63.7132 25.0116C63.6093 25.0745 63.5106 25.1738 63.4174 25.3095C63.3344 25.4348 63.215 25.5237 63.0589 25.5763C62.8924 25.6394 62.7154 25.6556 62.5278 25.625C62.3402 25.5944 62.1838 25.5481 62.0586 25.486C61.9228 25.3927 61.8393 25.3409 61.808 25.3306C61.7246 25.31 61.6725 25.2998 61.6517 25.2999C61.4528 25.0193 61.3164 24.7229 61.2424 24.4106C61.2002 24.2441 61.1527 24.0776 61.1001 23.9111C61.0579 23.7446 61.0104 23.5729 60.9577 23.396C60.9157 23.2919 60.8841 23.1827 60.8629 23.0682C60.8416 22.9536 60.8204 22.8235 60.799 22.6777L60.7513 22.4279C60.7408 22.3863 60.7302 22.3446 60.7196 22.303C60.7091 22.251 60.6932 22.1989 60.6722 22.1469C60.6302 22.0429 60.5882 21.9337 60.5461 21.8192C60.5041 21.7048 60.4724 21.5851 60.4512 21.4602C60.4086 21.2103 60.3922 20.9656 60.4018 20.726C60.4114 20.4863 60.4366 20.2519 60.4775 20.0226C60.6002 19.3346 60.7803 18.6778 61.0177 18.052C61.2552 17.4262 61.498 16.8316 61.7461 16.2682C61.7973 16.0076 61.8539 15.8095 61.9159 15.6739C61.978 15.5383 62.045 15.3506 62.1171 15.1107C62.2105 14.9958 62.2829 14.8289 62.3342 14.61C62.3547 14.5162 62.3752 14.4223 62.3957 14.3285C62.4267 14.2347 62.4576 14.1408 62.4885 14.047C62.5195 13.9635 62.5557 13.8801 62.5971 13.7966C62.6384 13.7027 62.6797 13.6036 62.7211 13.4993C62.8037 13.3115 62.8708 13.1186 62.9222 12.9205C62.9943 12.6807 63.0509 12.4721 63.092 12.2949C63.1125 12.1907 63.1382 12.0916 63.1691 11.9978C63.2104 11.9039 63.2518 11.8152 63.2932 11.7317C63.3758 11.5127 63.4532 11.2989 63.5254 11.0903C63.608 10.8817 63.6855 10.6783 63.7577 10.4801C63.8299 10.282 63.9022 10.0838 63.9744 9.88565C64.0571 9.68745 64.1398 9.48925 64.2224 9.29105C64.243 9.22848 64.2637 9.16591 64.2843 9.10334C64.3049 9.04077 64.3255 8.9782 64.3461 8.91563C64.3874 8.80091 64.4495 8.68611 64.5325 8.57125C64.5841 8.42524 64.6358 8.31569 64.6876 8.2426C64.7705 8.11731 64.8327 8.01814 64.8741 7.94509C64.8737 7.8305 64.9099 7.75226 64.9827 7.71034C65.0347 7.67892 65.0917 7.61101 65.1539 7.50664C65.2679 7.32916 65.3454 7.16223 65.3865 7.00584C65.4277 6.84945 65.5052 6.68252 65.6192 6.50505L65.9926 6.03503C66.0133 5.9933 66.034 5.95156 66.0547 5.90982C66.0754 5.86808 66.0961 5.82635 66.1168 5.78461C66.1686 5.7011 66.2308 5.62797 66.3035 5.56523C66.5419 5.18942 66.7906 4.81357 67.0497 4.43769L67.8894 3.24733C68.076 2.95503 68.2834 2.67829 68.5116 2.4171C68.7399 2.1559 68.9786 1.89988 69.2278 1.64904C69.3108 1.54459 69.4093 1.42967 69.5235 1.30428C69.6376 1.17889 69.7572 1.10557 69.8821 1.08432C70.08 1.06281 70.2884 1.08294 70.5073 1.1447C70.5702 1.24865 70.6278 1.35783 70.6803 1.47224C70.7328 1.58664 70.7801 1.71669 70.8223 1.86238C70.8661 2.50807 70.8474 3.13314 70.7661 3.73758C70.6848 4.34203 70.5931 4.93609 70.4909 5.51978C70.4705 5.65526 70.4657 5.75424 70.4763 5.8167C70.4869 5.87917 70.4821 5.97814 70.4617 6.11363C70.4204 6.23877 70.3689 6.4004 70.3071 6.59853C70.2452 6.79666 70.1938 6.97913 70.1527 7.14593C70.1536 7.42718 70.092 7.68781 69.9678 7.92781C69.8436 8.1574 69.761 8.38685 69.7202 8.61616C69.6578 8.65804 69.6216 8.72587 69.6115 8.81965C69.6014 8.91344 69.5651 8.98127 69.5028 9.02315C69.4515 9.26291 69.3845 9.47147 69.3018 9.64883C69.2087 9.83665 69.1312 10.0244 69.0693 10.2121C68.9138 10.4314 68.7583 10.6455 68.6027 10.8543C68.4472 11.0632 68.2864 11.2721 68.1205 11.481C67.9545 11.6795 67.7937 11.8883 67.6382 12.1076C67.4931 12.3164 67.348 12.5305 67.2029 12.7497C66.8402 13.303 66.4618 13.8252 66.0676 14.3161C65.6734 14.807 65.295 15.3291 64.9323 15.8824C64.6415 16.1438 64.4132 16.405 64.2474 16.666C64.0713 16.9479 63.8326 17.2091 63.5313 17.4497C63.48 17.6582 63.4286 17.8771 63.3773 18.1065C63.3364 18.3358 63.2903 18.5703 63.2391 18.8101C63.1982 19.0498 63.1522 19.2947 63.1009 19.5449C63.0497 19.7951 62.9985 20.0453 62.9472 20.2954C62.9373 20.4309 62.9065 20.5716 62.8549 20.7176C62.8343 20.7906 62.8137 20.8636 62.7931 20.9366C62.7725 20.9992 62.7519 21.0669 62.7313 21.1399C62.6902 21.2859 62.6803 21.463 62.7019 21.6713C62.7129 21.8587 62.6823 22.0359 62.6099 22.2028C62.6415 22.2861 62.6679 22.4058 62.6893 22.562C62.7002 22.6973 62.737 22.817 62.7999 22.921C62.9151 23.1081 63.0404 23.2014 63.1758 23.2009C63.3318 23.1171 63.415 23.0803 63.4255 23.0907C63.4359 23.1011 63.4671 23.0958 63.5192 23.0748C63.6231 23.0119 63.727 22.9282 63.8308 22.8237C63.9346 22.7192 64.028 22.6251 64.1111 22.5415C64.2255 22.489 64.3035 22.4419 64.345 22.4001C64.3761 22.3687 64.4333 22.3217 64.5164 22.2589C64.5787 22.217 64.6359 22.1856 64.6879 22.1645C64.74 22.1435 64.7867 22.1121 64.8283 22.0703C65.1293 21.7568 65.4097 21.5215 65.6696 21.3643C65.9399 21.2072 66.158 21.0137 66.3239 20.784L66.8852 20.4383C66.9996 20.3755 67.1087 20.2865 67.2125 20.1716C67.3058 20.0567 67.4253 19.9678 67.5709 19.9048C67.6331 19.8212 67.6746 19.769 67.6954 19.7481C67.7162 19.7272 67.7576 19.675 67.8199 19.5914C67.9446 19.5077 68.0693 19.4239 68.194 19.3401C68.3187 19.2564 68.4382 19.1726 68.5525 19.0889C68.6668 19.0052 68.7863 18.9215 68.9111 18.8377C69.0462 18.7539 69.1813 18.6701 69.3165 18.5863C69.3578 18.482 69.4252 18.3985 69.5187 18.3356C69.6123 18.2728 69.6902 18.2101 69.7525 18.1474C69.8148 18.0846 69.8666 18.0168 69.908 17.9437C69.9598 17.8602 70.0326 17.8131 70.1263 17.8023C70.1364 17.7085 70.183 17.6355 70.2662 17.5831C70.3494 17.5307 70.4168 17.4576 70.4686 17.3637ZM68.7416 5.71321L68.7103 5.71332C68.523 5.75562 68.3931 5.84981 68.3206 5.99589C68.2482 6.14197 68.1811 6.30886 68.1192 6.49657C68.0778 6.58005 68.0364 6.65311 67.995 6.71575C67.9639 6.77835 67.9381 6.83052 67.9174 6.87226C67.8759 6.94532 67.8607 7.07037 67.8718 7.24742C67.5506 7.77976 67.2452 8.32767 66.9555 8.89116C66.6657 9.44423 66.3863 10.0129 66.1175 10.5971C65.859 11.1813 65.5954 11.7708 65.3266 12.3655C65.0577 12.9497 64.7889 13.5392 64.5201 14.1338C64.9457 13.7053 65.3346 13.204 65.6869 12.6299C65.863 12.3376 66.0443 12.0661 66.231 11.8155C66.4281 11.5648 66.6252 11.335 66.8224 11.126C66.967 10.7713 67.1169 10.4271 67.272 10.0932C67.4376 9.75932 67.6084 9.44103 67.7844 9.13835C68.1262 8.55385 68.3947 7.86023 68.5899 7.05748C68.5057 6.79735 68.5153 6.57336 68.6188 6.3855C68.7224 6.19765 68.7633 5.97355 68.7416 5.71321ZM98.5406 1.70589C98.5829 1.89325 98.6876 2.03873 98.8546 2.14233L98.9033 2.65779C98.9139 2.74109 98.9247 2.8296 98.9354 2.92331C98.9461 3.00661 98.962 3.08989 98.9831 3.17315L98.984 3.43877C98.9843 3.53252 99.0159 3.61054 99.0786 3.67283C99.0186 4.42304 98.9217 5.02233 98.7878 5.4707C98.7156 5.70011 98.6488 5.94513 98.5872 6.20576C98.536 6.46635 98.4848 6.73736 98.4337 7.01879C98.4235 7.09174 98.3978 7.19078 98.3565 7.31592C98.3256 7.40978 98.3103 7.50879 98.3107 7.61296C98.2902 7.71719 98.2852 7.79013 98.2958 7.83176C98.3063 7.87339 98.3014 7.94632 98.2809 8.05056C98.2293 8.19657 98.1673 8.3322 98.0948 8.45744C98.0534 8.5305 98.012 8.60877 97.9706 8.69224C97.9292 8.7653 97.8878 8.84356 97.8464 8.92704C97.5151 9.53233 97.1472 10.1065 96.7428 10.6495C96.3384 11.1926 95.8346 11.611 95.2315 11.9047C94.9818 12.0201 94.7895 12.1197 94.6543 12.2035C94.5088 12.2873 94.3163 12.3557 94.0769 12.4086C93.9314 12.4924 93.7598 12.5815 93.5622 12.676C93.3646 12.7704 93.1721 12.8387 92.9848 12.881C92.912 12.923 92.8287 12.9441 92.735 12.9444C92.6725 12.9446 92.5892 12.9553 92.4851 12.9765L92.2198 13.0868C92.1782 13.0973 92.1418 13.1131 92.1106 13.134C92.0794 13.1445 92.0482 13.1551 92.017 13.1656C91.8609 13.2078 91.7359 13.229 91.6422 13.2294C91.4963 13.209 91.3918 13.1208 91.3288 12.9648C91.2658 12.8087 91.234 12.6474 91.2334 12.4807C91.1393 12.3873 91.0453 12.3147 90.9514 12.2629C90.8575 12.2112 90.7842 12.0968 90.7315 11.9199C90.6682 11.691 90.6261 11.5661 90.6052 11.5454C90.5739 11.5142 90.5529 11.483 90.5424 11.4518C90.4372 11.1605 90.3997 10.8325 90.4297 10.4678C90.4597 10.1031 90.5368 9.806 90.661 9.57641C90.7127 9.46165 90.775 9.38331 90.8477 9.3414C90.9413 9.289 90.9931 9.21069 91.0032 9.10649C91.1591 9.01221 91.3046 8.90235 91.4396 8.77689C91.5746 8.65143 91.72 8.54156 91.876 8.44728C92.0623 8.11331 92.301 7.84167 92.592 7.63235C92.8518 7.45438 93.1115 7.25558 93.3712 7.03595C93.4647 6.96272 93.5322 6.88957 93.5736 6.81651C93.6358 6.72255 93.7136 6.63896 93.8071 6.56572C93.8798 6.49256 93.9525 6.43502 94.0253 6.39311C94.1292 6.33025 94.202 6.28313 94.2435 6.25174L94.4927 6.00089C94.5655 5.95898 94.6487 5.93786 94.7425 5.93755C94.8362 5.93723 94.9195 5.91611 94.9923 5.8742C95.2838 5.83154 95.4297 5.84667 95.4299 5.91959L95.4307 6.15396C95.2436 6.26918 94.9731 6.37427 94.6193 6.46922C94.5678 6.64648 94.4797 6.77178 94.3549 6.84512C94.251 6.90797 94.1316 7.02296 93.9967 7.19008C93.9552 7.24231 93.9137 7.29453 93.8722 7.34675C93.8411 7.38853 93.8153 7.43549 93.7946 7.48764C93.7532 7.57112 93.6545 7.63916 93.4984 7.69177C93.3847 7.96299 93.2553 8.17698 93.11 8.33372C92.9439 8.51137 92.7935 8.69417 92.6587 8.88213C92.6595 9.11129 92.6133 9.30416 92.52 9.46073C92.4268 9.61729 92.3284 9.77909 92.2248 9.94611C92.1834 10.0296 92.142 10.1131 92.1006 10.1965C92.0593 10.28 92.0386 10.3426 92.0388 10.3842C92.0493 10.405 92.0598 10.431 92.0703 10.4623C92.0912 10.483 92.1069 10.5142 92.1175 10.5558C92.149 10.6391 92.1857 10.7067 92.2276 10.7586C92.2589 10.8002 92.306 10.8521 92.3687 10.9144C92.4314 10.9767 92.4681 11.0286 92.4786 11.0703C92.9776 10.7561 93.4713 10.4419 93.9598 10.1277C94.4483 9.81357 94.8689 9.43714 95.2216 8.99844C95.3251 8.81059 95.4235 8.62796 95.5166 8.45056C95.6098 8.27316 95.7081 8.08012 95.8115 7.87143C95.8525 7.66296 95.9143 7.46483 95.997 7.27705C96.0797 7.08927 96.1728 6.90145 96.2764 6.7136C96.3798 6.50491 96.4729 6.29626 96.5555 6.08765C96.6381 5.87903 96.6895 5.66011 96.7095 5.43087C96.7196 5.3475 96.7246 5.26415 96.7243 5.18082C96.7344 5.08704 96.7341 4.98808 96.7233 4.88395C96.7122 4.69648 96.7378 4.54536 96.7999 4.43056C96.7578 4.31612 96.7573 4.1755 96.7984 4.00869C96.8396 3.86271 96.8494 3.69081 96.8279 3.49296C96.6811 3.18096 96.5346 2.99916 96.3886 2.94757C96.2426 2.89598 96.0862 2.84964 95.9194 2.80854C95.7531 2.91327 95.5764 3.02845 95.3893 3.15409C95.2022 3.27972 95.0256 3.41574 94.8594 3.56214C94.7971 3.62485 94.7348 3.68756 94.6726 3.75027C94.6103 3.81298 94.5428 3.87571 94.4701 3.93846C94.3247 4.06395 94.2158 4.21016 94.1434 4.37707C93.8736 4.66965 93.6557 4.9256 93.4898 5.14491C93.3239 5.36423 93.1579 5.58875 92.9921 5.81848C92.6698 6.02791 92.3478 6.279 92.0259 6.57176C91.7039 6.86452 91.3819 7.11561 91.0597 7.32504C90.7895 7.53429 90.5246 7.74873 90.265 7.96837C90.0053 8.188 89.7613 8.41278 89.5329 8.64273C89.4291 8.75766 89.3201 8.86741 89.2059 8.97196C89.102 9.07648 88.993 9.18102 88.8788 9.28557C88.6399 9.49472 88.4323 9.70896 88.256 9.92831C87.9346 10.3773 87.5716 10.8473 87.167 11.3383C87.0528 11.4532 86.9594 11.5681 86.8869 11.683C86.8144 11.8082 86.7211 11.9335 86.6069 12.0589C86.5031 12.1634 86.4045 12.2784 86.3112 12.4037C86.2698 12.4663 86.2231 12.529 86.1712 12.5916C86.1297 12.6439 86.0883 12.6961 86.0468 12.7483C86.0053 12.8214 85.9536 12.9309 85.8916 13.077C85.8296 13.223 85.7779 13.3326 85.7365 13.4056C85.529 13.6563 85.3268 13.9122 85.1297 14.1733C84.9327 14.4344 84.7618 14.7319 84.6171 15.0657C84.3786 15.379 84.187 15.7078 84.0423 16.052C83.97 16.2189 83.8976 16.3806 83.8252 16.5371C83.7528 16.6936 83.6752 16.8501 83.5924 17.0067C83.5517 17.2881 83.4745 17.5487 83.3607 17.7887C83.2469 18.0287 83.1697 18.2894 83.129 18.5707C83.1188 18.6437 83.1034 18.7167 83.0829 18.7897C83.0622 18.8522 83.0416 18.92 83.021 18.993C83.0005 19.066 82.9799 19.139 82.9593 19.212C82.9387 19.2849 82.9233 19.3631 82.9132 19.4465C82.872 19.5716 82.8516 19.7227 82.8522 19.8998C82.8528 20.0665 82.8325 20.2072 82.7912 20.3219C82.6671 20.5827 82.6052 20.7757 82.6056 20.9007C82.606 21.0152 82.5542 21.104 82.4503 21.1668C82.5134 21.3333 82.5711 21.4789 82.6236 21.6037C82.6762 21.7286 82.7547 21.8533 82.8593 21.9779C82.9117 22.0611 82.9744 22.1338 83.0475 22.196C83.1207 22.2583 83.1834 22.331 83.2358 22.4142C83.3198 22.6222 83.3879 22.747 83.4402 22.7885C83.4924 22.83 83.5603 22.8818 83.6438 22.944C83.7065 22.9855 83.7848 23.0373 83.8787 23.0995C83.9727 23.1617 84.0614 23.203 84.1448 23.2236C84.2595 23.2649 84.3689 23.2801 84.4731 23.2693C84.5459 23.2587 84.6553 23.2635 84.8012 23.2839C84.9366 23.2834 85.0304 23.2883 85.0825 23.2985C85.1347 23.3088 85.2284 23.3032 85.3637 23.2819C85.5303 23.2397 85.728 23.1922 85.957 23.1393C86.186 23.0865 86.3942 23.0389 86.5815 22.9966C86.8729 22.9122 87.1591 22.8279 87.44 22.7437C87.721 22.6594 87.9863 22.5647 88.236 22.4597C88.5064 22.3442 88.7247 22.1976 88.8907 22.02C89.0568 21.8423 89.2438 21.6959 89.4517 21.5806C89.7842 21.3294 90.0179 21.1255 90.1528 20.9688C90.2981 20.8121 90.4487 20.6814 90.6046 20.5767C90.7498 20.3887 90.8328 20.2946 90.8536 20.2946C90.8745 20.2945 90.8953 20.284 90.916 20.2631C90.9887 20.1795 91.0561 20.1012 91.1184 20.028C91.191 19.9549 91.2637 19.8817 91.3364 19.8086C91.409 19.7354 91.4765 19.6622 91.5387 19.5891C91.6114 19.5159 91.6841 19.4376 91.7567 19.354C92.0063 19.2386 92.1933 19.1025 92.3178 18.9458C92.4947 18.8827 92.635 18.7989 92.7388 18.6944C92.7907 18.6422 92.8479 18.5899 92.9102 18.5376C92.9725 18.4853 93.0348 18.433 93.0972 18.3807C93.253 18.2656 93.3673 18.1714 93.4399 18.0983C93.523 18.0147 93.6008 17.9311 93.6735 17.8475C93.7461 17.7639 93.8239 17.6699 93.9069 17.5654C93.9588 17.5132 94.0211 17.4661 94.0939 17.4242C94.1875 17.3614 94.2705 17.283 94.3431 17.189C94.3742 17.1472 94.4156 17.0637 94.4673 16.9385C94.5086 16.8342 94.5813 16.7819 94.6855 16.7816C94.8104 16.7603 94.946 16.8171 95.0923 16.952C95.2386 17.087 95.312 17.2273 95.3125 17.3732C95.1156 17.6863 95.0121 17.8638 95.0018 17.9055C94.8463 18.1352 94.6908 18.3336 94.5351 18.5008C94.4521 18.5949 94.3691 18.6941 94.2861 18.7985C94.2031 18.903 94.1201 19.0126 94.0372 19.1275C93.8712 19.3156 93.7052 19.5089 93.5392 19.7073C93.3732 19.9058 93.2176 20.1199 93.0726 20.3495C92.9483 20.5583 92.7875 20.762 92.5903 20.9606C92.5072 21.0442 92.419 21.1382 92.3256 21.2427C92.2322 21.3368 92.1388 21.436 92.0454 21.5405C91.8067 21.8018 91.542 22.0735 91.2512 22.3557C91.002 22.5857 90.7583 22.8887 90.52 23.2645C90.385 23.4003 90.2812 23.4997 90.2085 23.5624C90.1358 23.6251 90.0319 23.7245 89.897 23.8603C89.7826 23.9232 89.6839 23.9913 89.6008 24.0645C89.5177 24.1377 89.419 24.2057 89.3046 24.2686C89.0965 24.3422 88.8833 24.4315 88.6649 24.5364C88.4569 24.6308 88.2489 24.7357 88.0409 24.851C87.5939 25.1025 87.1206 25.2968 86.621 25.4339C86.5066 25.4656 86.3869 25.4972 86.262 25.5289C86.1475 25.571 86.0331 25.613 85.9187 25.6551C85.6897 25.7288 85.4242 25.7609 85.1221 25.7515C85.0595 25.7309 85.0074 25.7207 84.9657 25.7208C84.9241 25.721 84.8615 25.7107 84.7781 25.6902C84.6739 25.6801 84.5436 25.6389 84.3871 25.5665C84.2306 25.4941 84.0794 25.453 83.9335 25.4431C83.8294 25.4434 83.7357 25.4594 83.6525 25.4909C83.5796 25.5224 83.486 25.5383 83.3714 25.5387C82.9121 25.2486 82.5414 25.0051 82.2595 24.8081C81.9776 24.6111 81.7216 24.3776 81.4915 24.1076C81.2926 23.8062 81.1774 23.6347 81.146 23.5931C81.1146 23.5516 81.078 23.51 81.0362 23.4685C81.0048 23.4269 80.9682 23.3802 80.9264 23.3282C80.7589 23.0892 80.5913 22.8085 80.4235 22.4862C80.4233 22.4133 80.397 22.3405 80.3446 22.2677C80.3132 22.2262 80.2661 22.1534 80.2033 22.0494C80.0979 21.706 80.0446 21.3364 80.0433 20.9406C80.0426 20.7427 80.0419 20.55 80.0413 20.3625C80.0511 20.1749 80.0609 19.9874 80.0706 19.7999C80.0807 19.6957 80.0804 19.5967 80.0696 19.503C80.0484 19.3781 80.0376 19.2792 80.0374 19.2062C80.0368 19.0396 80.0675 18.8624 80.1293 18.6747C80.1603 18.5808 80.186 18.4922 80.2066 18.4088C80.2375 18.3149 80.2632 18.2263 80.2838 18.1429C80.4072 17.6841 80.5464 17.2514 80.7013 16.8446C80.8561 16.4378 81.0371 16.057 81.2443 15.7021C81.4309 15.4411 81.5707 15.201 81.6637 14.9819C81.7154 14.8672 81.7619 14.7524 81.8031 14.6377C81.8548 14.5125 81.9065 14.3874 81.9581 14.2622C82.0615 14.0327 82.1649 13.8084 82.2683 13.5893C82.3718 13.3702 82.4856 13.1458 82.6098 12.9162C82.7133 12.7075 82.8219 12.4988 82.9358 12.2901C83.0497 12.0814 83.2001 11.8934 83.387 11.7261C83.4488 11.4967 83.5419 11.3037 83.6663 11.147C83.7285 11.0635 83.7908 10.9851 83.853 10.912C83.9152 10.8285 83.9775 10.7449 84.0397 10.6614C84.1433 10.5152 84.247 10.3742 84.3507 10.2384C84.4649 10.1026 84.5738 9.97205 84.6775 9.8467C84.8851 9.61683 85.0769 9.33492 85.2528 9.00099C85.419 8.87543 85.5696 8.7395 85.7045 8.59321C85.8395 8.44692 85.9692 8.30064 86.0937 8.15439C86.1663 8.07081 86.2338 7.99245 86.296 7.91932C86.3687 7.84616 86.4414 7.773 86.514 7.69983C86.5867 7.62667 86.6542 7.55352 86.7164 7.4804C86.7891 7.40723 86.8617 7.32886 86.9344 7.24528C87.0175 7.1825 87.0954 7.11452 87.168 7.04136C87.2407 6.9682 87.3082 6.90026 87.3705 6.83755C87.5157 6.67039 87.6611 6.52406 87.8065 6.39857C87.9519 6.27307 88.1077 6.14754 88.274 6.02198C88.4196 5.95899 88.5963 5.8438 88.8041 5.67643C88.8975 5.58236 88.9909 5.4883 89.0843 5.39423C89.1778 5.30016 89.266 5.2009 89.349 5.09645C89.4319 4.99201 89.5202 4.89796 89.6136 4.81431C89.7071 4.72024 89.8005 4.63138 89.894 4.54773C90.1847 4.25507 90.4858 3.96759 90.7973 3.68529C91.1089 3.40298 91.4413 3.14664 91.7947 2.91627C92.0023 2.6864 92.2516 2.49285 92.5427 2.33561C92.8339 2.17837 93.125 2.02634 93.4162 1.87952C93.5827 1.81645 93.7231 1.75869 93.8375 1.70622C93.9519 1.65374 94.0819 1.58559 94.2274 1.50177C94.4665 1.35512 94.6329 1.27643 94.7266 1.2657C94.8308 1.25493 94.9139 1.20777 94.9762 1.12423C95.2366 1.12334 95.4552 1.08614 95.632 1.01263C95.8089 0.93911 96.0172 0.933195 96.257 0.994882C96.3299 1.00505 96.4029 1.03085 96.476 1.07226C96.5595 1.11365 96.622 1.13948 96.6637 1.14975C97.0597 1.19008 97.3412 1.25162 97.5081 1.33439C97.6751 1.41716 97.8368 1.49474 97.9933 1.56712C98.1498 1.63951 98.3322 1.68577 98.5406 1.70589ZM97.7354 22.2712C98.2027 21.8634 98.6439 21.4088 99.0589 20.9074C99.2664 20.6671 99.4791 20.4216 99.697 20.1708C99.9149 19.9201 100.143 19.6693 100.382 19.4185C100.486 19.314 100.59 19.1886 100.693 19.0424C100.797 18.8963 100.901 18.7397 101.004 18.5726C101.087 18.4474 101.191 18.3272 101.315 18.2122C101.45 18.0867 101.554 17.977 101.627 17.883C101.689 17.7786 101.767 17.695 101.86 17.6322C101.912 17.6008 101.959 17.5694 102.001 17.538C102.053 17.4962 102.104 17.4543 102.156 17.4125C102.26 17.308 102.354 17.2191 102.437 17.1459C102.52 17.0727 102.613 16.9943 102.717 16.9106C102.811 16.8373 102.899 16.7641 102.982 16.6909C103.076 16.6073 103.164 16.5288 103.247 16.4556C103.413 16.2988 103.611 16.168 103.839 16.063C103.964 16.0418 104.058 15.9946 104.12 15.9214C104.162 15.8692 104.234 15.7908 104.338 15.6863C104.463 15.7067 104.557 15.696 104.619 15.6541C104.661 15.6331 104.702 15.6122 104.744 15.5912C104.796 15.5702 104.848 15.5492 104.9 15.5282C105.192 15.5897 105.427 15.7035 105.604 15.8695C105.782 16.0356 105.954 16.2017 106.122 16.3678C106.268 16.4298 106.382 16.4867 106.466 16.5385C106.549 16.5903 106.633 16.6473 106.717 16.7095C106.8 16.8759 106.874 17.0319 106.937 17.1775C107 17.3231 107.032 17.4897 107.032 17.6772C107.033 17.7605 107.023 17.8856 107.002 18.0523C106.992 18.1148 106.982 18.1774 106.972 18.2399C106.962 18.3024 106.951 18.365 106.941 18.4275C106.859 18.6778 106.828 18.8133 106.849 18.8341C106.87 18.8548 106.88 18.886 106.88 18.9277C106.902 19.1151 106.845 19.2872 106.71 19.4439C106.575 19.611 106.54 19.7935 106.603 19.9912C106.624 20.0744 106.598 20.2308 106.526 20.4602C106.454 20.6896 106.429 20.8459 106.45 20.9292C106.492 21.0436 106.513 21.205 106.514 21.4133C106.514 21.6217 106.567 21.7621 106.671 21.8347C106.89 21.9173 107.036 21.9585 107.109 21.9582L107.328 21.9575C107.578 21.8316 107.889 21.617 108.263 21.3137C108.637 21.0103 108.918 20.7541 109.105 20.5452C109.208 20.4615 109.307 20.3778 109.401 20.2942C109.494 20.2105 109.582 20.1321 109.665 20.0589C109.863 19.8811 110.091 19.7293 110.351 19.6034C110.622 19.415 110.788 19.2843 110.85 19.2111L111.255 18.7566C111.317 18.6939 111.395 18.6312 111.489 18.5683C111.582 18.5055 111.67 18.4323 111.753 18.3487C111.92 18.1815 112.086 18.0663 112.252 18.0032L112.612 18.002C112.757 18.0015 112.857 18.0429 112.909 18.126C112.951 18.2925 112.952 18.4384 112.91 18.5635C112.869 18.6887 112.817 18.8034 112.755 18.9078C112.683 19.0226 112.589 19.1375 112.475 19.2525C112.392 19.409 112.299 19.5448 112.195 19.6597C112.143 19.712 112.086 19.7694 112.024 19.8322C111.972 19.8844 111.915 19.9471 111.853 20.0202C111.728 20.1665 111.583 20.2764 111.416 20.3498C111.365 20.4125 111.313 20.47 111.261 20.5222C111.219 20.5745 111.173 20.6267 111.121 20.679L110.825 20.9769C110.711 21.0918 110.617 21.2067 110.545 21.3216C110.472 21.4364 110.379 21.5513 110.265 21.6663C110.15 21.7604 110.036 21.8545 109.922 21.9487C109.818 22.0428 109.709 22.1317 109.595 22.2154C109.376 22.3828 109.174 22.5866 108.987 22.8268C108.894 22.8688 108.811 22.916 108.738 22.9683C108.696 22.9997 108.623 23.0468 108.52 23.1097C108.259 23.1835 107.994 23.3354 107.724 23.5655C107.465 23.7956 107.194 24.01 106.914 24.2089C106.644 24.3973 106.358 24.4816 106.055 24.4618C105.827 24.5667 105.629 24.5726 105.462 24.4794C105.295 24.3862 105.128 24.2879 104.961 24.1843C104.731 24.0392 104.512 23.8733 104.303 23.6865C104.094 23.4997 103.968 23.2397 103.925 22.9065C103.882 22.365 103.942 21.8544 104.107 21.3746C104.283 20.8844 104.406 20.4049 104.477 19.9359C104.477 19.8838 104.508 19.6962 104.569 19.3731C104.641 19.0395 104.651 18.8207 104.598 18.7167C104.567 18.6751 104.541 18.6023 104.519 18.4982C104.509 18.3941 104.42 18.2902 104.253 18.1866C104.159 18.1349 104.117 18.1246 104.128 18.1558C104.138 18.1974 104.055 18.2185 103.878 18.2191C103.701 18.2822 103.555 18.3661 103.441 18.4706C103.379 18.5229 103.311 18.5752 103.239 18.6276C103.176 18.6799 103.109 18.7322 103.036 18.7845C102.849 19.0039 102.616 19.213 102.335 19.4119C102.086 19.5898 101.862 19.8093 101.665 20.0704C101.499 20.2585 101.344 20.4465 101.199 20.6345C101.074 20.8016 100.908 20.9896 100.701 21.1987C100.119 21.8673 99.5486 22.4838 98.988 23.0482C98.9154 23.1318 98.8427 23.2154 98.7701 23.299C98.7079 23.3825 98.6457 23.4661 98.5835 23.5496C98.5212 23.6332 98.4538 23.7167 98.3812 23.8003C98.319 23.8839 98.2515 23.9674 98.1789 24.051C97.93 24.3643 97.6602 24.6673 97.3695 24.96C97.2452 25.1688 97.0688 25.3673 96.8403 25.5555C96.6117 25.7438 96.383 25.88 96.1541 25.9641C96.0915 25.9227 96.0238 25.9229 95.951 25.9648C95.8782 26.0067 95.8106 26.0278 95.7481 26.028C95.6229 25.9763 95.5238 25.935 95.4508 25.904C95.3778 25.8834 95.3309 25.868 95.31 25.8576C95.2683 25.8369 95.2369 25.7902 95.2158 25.7173C95.007 25.593 94.9282 25.3902 94.9794 25.1087C95.0305 24.8273 95.0765 24.5824 95.1175 24.3739C95.2201 23.9048 95.3435 23.4356 95.4877 22.9664C95.632 22.4971 95.7918 22.033 95.9674 21.5741C96.1429 21.1152 96.3028 20.6563 96.4471 20.1975C96.5914 19.7386 96.7148 19.2851 96.8175 18.8368C96.9204 18.4823 97.0235 18.1538 97.1266 17.8514C97.2298 17.549 97.3537 17.2308 97.4984 16.897C97.6535 16.5632 97.7515 16.2659 97.7923 16.0054C97.833 15.7448 97.931 15.4476 98.0861 15.1138C98.1793 14.9468 98.2517 14.7903 98.3033 14.6443C98.3652 14.467 98.4271 14.3105 98.4892 14.1749C98.7273 13.747 98.9443 13.2306 99.1402 12.6258C99.3464 12.0105 99.5633 11.4629 99.7909 10.983C100.039 10.3154 100.297 9.66873 100.566 9.04282C100.834 8.4169 101.134 7.8013 101.466 7.19601C101.661 6.39326 101.981 5.64217 102.427 4.94273C102.634 4.6712 102.774 4.45197 102.846 4.28506C102.939 4.07641 103.027 3.91986 103.11 3.81541C103.359 3.51248 103.64 3.27715 103.952 3.10943C104.253 2.94174 104.523 2.70645 104.762 2.40355C104.939 2.31962 105.1 2.25657 105.246 2.21441C105.329 2.19329 105.407 2.1722 105.48 2.15112C105.553 2.11962 105.625 2.08812 105.698 2.05662C105.761 2.11891 105.793 2.24381 105.793 2.4313C105.835 2.43116 105.845 2.49363 105.825 2.6187C105.805 2.74377 105.805 2.84793 105.826 2.9312C105.827 3.22286 105.802 3.43128 105.75 3.55646L105.611 3.90068C105.59 4.06742 105.58 4.17683 105.58 4.22891C105.581 4.30183 105.571 4.3904 105.55 4.49464C105.488 4.69277 105.463 4.80223 105.473 4.82303C105.484 4.84383 105.489 4.88027 105.489 4.93235C105.489 4.97402 105.479 5.0678 105.459 5.2137C105.438 5.35961 105.428 5.46381 105.429 5.52631C105.419 5.73468 105.362 5.97445 105.259 6.24564C105.177 6.47509 105.099 6.70452 105.027 6.93393C104.903 7.08018 104.83 7.19501 104.81 7.27842C104.789 7.36182 104.748 7.41405 104.685 7.43509C104.623 7.61239 104.561 7.78968 104.499 7.96697C104.448 8.13382 104.396 8.30066 104.345 8.4675C104.242 8.79077 104.087 9.1038 103.879 9.40658C103.807 9.62558 103.698 9.84991 103.553 10.0796C103.481 10.184 103.414 10.2936 103.351 10.4084C103.3 10.5127 103.248 10.6171 103.196 10.7214L103.057 11.0188C102.995 11.144 102.948 11.2431 102.917 11.3161C102.772 11.5874 102.622 11.864 102.467 12.1458C102.311 12.4275 102.13 12.6834 101.922 12.9132C101.55 13.7062 101.157 14.5044 100.743 15.3079C100.329 16.1114 99.9255 16.8888 99.5322 17.6401C99.4597 17.755 99.3975 17.8645 99.3458 17.9689C99.294 18.0628 99.2527 18.1515 99.2217 18.2349C99.17 18.3497 99.134 18.48 99.1136 18.6259C99.0932 18.751 99.0363 18.8606 98.9429 18.9546C98.912 19.0485 98.881 19.1423 98.8501 19.2362C98.8191 19.3196 98.7934 19.4031 98.7728 19.4865C98.7317 19.6533 98.6541 19.8098 98.54 19.956C98.4685 20.3625 98.3396 20.7536 98.1534 21.1292C97.9775 21.484 97.8382 21.8646 97.7354 22.2712ZM120.839 15.8804L120.808 16.1305C120.83 16.2033 120.809 16.3284 120.747 16.5057C120.643 16.631 120.581 16.7667 120.561 16.9126C120.52 16.996 120.483 17.0691 120.452 17.1317C120.421 17.1943 120.396 17.2777 120.375 17.3819C120.334 17.5071 120.319 17.653 120.33 17.8196C120.34 17.9029 120.341 17.9862 120.331 18.0696C120.331 18.1425 120.326 18.2155 120.316 18.2884C120.275 18.5177 120.244 18.7418 120.224 18.9606C120.204 19.1794 120.184 19.4034 120.164 19.6327C120.165 19.8618 120.145 20.1223 120.104 20.4141C120.064 20.7059 120.023 20.9665 119.982 21.1958C120.076 21.3621 120.129 21.5182 120.14 21.664C120.151 21.8202 120.224 21.9554 120.36 22.0695C120.776 22.0056 121.109 21.9055 121.359 21.7693C121.608 21.633 121.847 21.4395 122.076 21.1887C122.242 21.1152 122.372 21.0419 122.465 20.9686C122.549 20.8954 122.668 20.8117 122.824 20.7174L123.073 20.4666C123.323 20.3303 123.463 20.2465 123.494 20.2151C123.515 20.1942 123.541 20.1733 123.572 20.1524C123.614 20.1314 123.655 20.1104 123.697 20.0894C124.05 19.8591 124.32 19.6186 124.507 19.3679C124.663 19.2424 124.793 19.1118 124.896 18.976C124.979 18.8611 125.14 18.7512 125.379 18.6462C125.514 18.4791 125.665 18.338 125.831 18.2228C125.997 18.1077 126.148 17.9665 126.283 17.7994C126.397 17.799 126.481 17.8196 126.533 17.8611C126.564 17.8818 126.596 17.9025 126.627 17.9232C126.669 17.9439 126.711 17.9646 126.752 17.9853C126.815 18.1518 126.826 18.3236 126.785 18.5008C126.744 18.6781 126.672 18.8398 126.568 18.986C126.464 19.1217 126.413 19.2052 126.413 19.2365C126.413 19.2573 126.402 19.2782 126.382 19.2991C126.319 19.3722 126.242 19.4506 126.148 19.5343C126.055 19.6075 125.977 19.6859 125.915 19.7694C125.811 19.9573 125.728 20.0513 125.666 20.0515C125.603 20.0517 125.551 20.0727 125.509 20.1146C125.322 20.2298 125.192 20.3135 125.12 20.3659C125.037 20.4391 124.917 20.5228 124.761 20.6171C124.543 20.7324 124.408 20.8162 124.356 20.8685C124.304 20.9207 124.262 20.9521 124.231 20.9626C123.982 21.2447 123.738 21.4799 123.499 21.6683C123.281 21.8357 123.047 22.0708 122.798 22.3738C122.715 22.4365 122.632 22.4993 122.549 22.5621C122.466 22.6249 122.393 22.7085 122.331 22.8128C122.144 22.9385 121.993 23.064 121.879 23.1894C121.765 23.3148 121.635 23.461 121.49 23.6282C121.365 23.6911 121.23 23.7801 121.085 23.8952C120.908 24.0312 120.752 24.1307 120.617 24.1937C120.565 24.2251 120.477 24.2723 120.352 24.3352C120.248 24.3876 120.149 24.414 120.055 24.4143C119.816 24.4568 119.587 24.4367 119.368 24.3542C119.169 24.2819 118.971 24.2201 118.773 24.1687C118.689 24.044 118.585 23.9401 118.46 23.8572C118.271 23.6287 118.135 23.3583 118.051 23.0461C117.966 22.7339 117.882 22.4008 117.797 22.047C117.61 22.1726 117.454 22.3085 117.33 22.4548C117.205 22.6115 117.018 22.7475 116.769 22.863C116.561 23.0616 116.348 23.2602 116.13 23.4589C115.912 23.6471 115.683 23.8302 115.444 24.0081C115.216 24.1859 114.982 24.3742 114.743 24.573C114.504 24.7613 114.265 24.9548 114.026 25.1535C113.86 25.3207 113.746 25.3836 113.683 25.3422C113.497 25.572 113.164 25.646 112.684 25.5643C112.517 25.4816 112.329 25.4093 112.121 25.3475C111.975 25.3063 111.808 25.2444 111.62 25.1617C111.266 25.1004 110.968 24.9451 110.728 24.6959C110.488 24.4468 110.284 24.1558 110.116 23.823C110.053 23.6462 110.005 23.4901 109.973 23.3548C109.963 23.2819 109.947 23.2038 109.926 23.1205C109.905 23.0373 109.884 22.9488 109.862 22.8551C109.851 22.6781 109.82 22.5376 109.767 22.4336C109.725 22.3191 109.725 22.2098 109.766 22.1054C109.724 22.0535 109.714 21.9858 109.734 21.9024C109.755 21.7982 109.765 21.72 109.765 21.6679C109.743 21.3764 109.768 21.0638 109.84 20.7302C109.911 20.3966 110.009 20.0942 110.133 19.8229C110.196 19.7186 110.279 19.6141 110.382 19.5096C110.434 19.4469 110.465 19.3843 110.475 19.3218C110.486 19.2697 110.517 19.2175 110.569 19.1652C110.621 19.1025 110.683 19.0398 110.756 18.9771C110.859 18.8934 110.932 18.8306 110.974 18.7888C111.025 18.7157 111.077 18.6479 111.129 18.5852C111.191 18.5121 111.259 18.4493 111.332 18.397C111.404 18.3447 111.472 18.2871 111.534 18.2244C111.597 18.1617 111.659 18.099 111.721 18.0363C111.794 17.9631 111.851 17.89 111.892 17.817C111.944 17.7335 112.022 17.6707 112.126 17.6287C112.209 17.4826 112.302 17.3624 112.406 17.2683C112.51 17.1742 112.624 17.0749 112.749 16.9703C113.101 16.542 113.538 16.176 114.058 15.8721C114.588 15.5682 115.055 15.2333 115.46 14.8673C115.606 14.8044 115.731 14.731 115.835 14.6473C115.939 14.5636 116.042 14.48 116.146 14.3963C116.406 14.1662 116.687 14.0923 116.989 14.1747L117.803 14.3907C118.011 14.5774 118.215 14.7643 118.414 14.9511C118.612 15.1379 118.785 15.3457 118.932 15.5743C119.004 15.5637 119.083 15.5582 119.166 15.5579C119.249 15.5472 119.338 15.5469 119.431 15.557C119.619 15.5772 119.817 15.5609 120.025 15.5081C120.088 15.5079 120.15 15.4921 120.212 15.4606C120.275 15.4291 120.327 15.4133 120.369 15.4132C120.681 15.5163 120.838 15.672 120.839 15.8804ZM116.715 16.3631C116.154 16.6358 115.645 16.9553 115.187 17.3214C114.73 17.6875 114.294 18.0797 113.879 18.4977C113.827 18.55 113.77 18.6023 113.708 18.6546C113.656 18.6964 113.604 18.7435 113.552 18.7957C113.5 18.8376 113.448 18.8846 113.396 18.9369C113.344 18.9891 113.297 19.0414 113.256 19.0936C113.173 19.198 113.095 19.3233 113.023 19.4694C112.95 19.6155 112.883 19.7511 112.821 19.8763C112.8 19.9181 112.78 19.9598 112.759 20.0015C112.738 20.0329 112.718 20.059 112.697 20.0799C112.676 20.1008 112.655 20.1269 112.635 20.1582C112.614 20.1895 112.593 20.2208 112.572 20.2522C112.531 20.3565 112.516 20.4607 112.527 20.5648C112.537 20.6377 112.543 20.7523 112.543 20.9085L112.544 21.221C112.545 21.2835 112.555 21.3877 112.577 21.5334C112.64 21.7624 112.672 21.9914 112.673 22.2206C112.673 22.3873 112.69 22.5903 112.722 22.8298C112.754 23.0693 112.832 23.2305 112.958 23.3134C113.093 23.3963 113.224 23.4166 113.349 23.3746C113.494 23.322 113.614 23.2903 113.708 23.2796C114.435 22.7146 115.12 22.1237 115.764 21.507C116.408 20.8902 116.978 20.1956 117.476 19.423C117.432 18.9128 117.425 18.3867 117.455 17.845C117.484 17.3345 117.436 16.8607 117.309 16.4236C117.226 16.3718 117.127 16.3565 117.012 16.3777C116.929 16.3884 116.83 16.3835 116.715 16.3631ZM133.747 7.27404C134.206 7.34541 134.602 7.39094 134.935 7.41064C135.279 7.43031 135.654 7.403 136.06 7.3287L137.294 7.15264C137.627 7.10985 138.028 7.06161 138.496 7.00794C138.621 6.9971 138.752 6.99666 138.887 7.00662C138.96 7.01678 139.028 7.02697 139.09 7.03718C139.153 7.03696 139.215 7.03675 139.278 7.03654C139.549 7.03562 139.814 7.0243 140.074 7.00259C140.335 6.98087 140.58 6.95921 140.809 6.9376C140.85 6.92704 140.887 6.9165 140.918 6.90598C140.96 6.89542 140.996 6.88488 141.027 6.87436C141.09 6.85331 141.152 6.8531 141.215 6.87372C141.308 6.8734 141.402 6.87309 141.496 6.87277C141.59 6.87245 141.683 6.86692 141.777 6.85619C141.965 6.84514 142.131 6.91228 142.278 7.05762C142.341 7.26574 142.362 7.38025 142.341 7.40115C142.31 7.43251 142.29 7.46383 142.279 7.49512C142.259 7.76602 142.223 7.90156 142.171 7.90173C142.119 7.90191 142.093 7.92283 142.093 7.9645C141.927 8.00673 141.786 8.04367 141.672 8.0753C141.557 8.10694 141.469 8.17495 141.407 8.27933C141.053 8.35345 140.725 8.37018 140.423 8.32954C140.12 8.27848 139.813 8.3264 139.501 8.47329C139.345 8.54674 139.195 8.62537 139.049 8.7092C138.903 8.80344 138.711 8.80931 138.471 8.72679C138.263 8.72749 138.023 8.73872 137.752 8.76047C137.482 8.78222 137.221 8.80394 136.971 8.82562C136.617 8.85807 136.216 8.89589 135.769 8.93908C135.331 8.97181 134.993 8.99379 134.753 9.00502C134.524 9.01621 134.196 9.03295 133.769 9.05523C133.342 9.07751 132.962 9.08922 132.628 9.09035C132.462 9.22633 132.353 9.40378 132.302 9.62271C132.251 9.83122 132.142 9.99825 131.976 10.1238C131.79 10.5411 131.655 10.8072 131.572 10.9221C131.479 11.0474 131.406 11.2091 131.355 11.4072C131.065 11.7832 130.8 12.1747 130.562 12.5818C130.345 12.9575 130.07 13.3386 129.738 13.7252C129.697 13.9545 129.62 14.1579 129.506 14.3353C129.402 14.5024 129.325 14.737 129.274 15.0393C129.056 15.3317 128.89 15.676 128.777 16.0722C128.726 16.2599 128.664 16.4528 128.591 16.651C128.53 16.8491 128.457 17.0525 128.375 17.2611C128.334 17.4279 128.287 17.5895 128.236 17.7459C128.184 17.9023 128.128 18.064 128.066 18.2309C127.993 18.4186 127.895 18.6117 127.771 18.81C127.719 18.8935 127.662 18.9875 127.6 19.0918C127.548 19.1858 127.496 19.2849 127.445 19.3892C127.403 19.431 127.382 19.4884 127.383 19.5613C127.383 19.6134 127.373 19.6707 127.352 19.7333C127.321 19.8063 127.29 19.8793 127.259 19.9524C127.228 20.015 127.197 20.0724 127.166 20.1246C127.124 20.1976 127.073 20.3072 127.011 20.4532C126.98 20.5262 126.954 20.6357 126.934 20.7816C126.913 20.9275 126.888 21.037 126.857 21.11C126.846 21.1413 126.836 21.1726 126.826 21.2038C126.815 21.2351 126.805 21.2612 126.795 21.2821C126.784 21.3029 126.774 21.329 126.764 21.3603C126.753 21.3916 126.743 21.4229 126.733 21.4542C126.671 21.746 126.672 21.944 126.735 22.0479C126.798 22.1519 126.85 22.2559 126.892 22.3599C126.913 22.4223 126.934 22.4795 126.955 22.5315C126.976 22.5836 126.997 22.6356 127.018 22.6876C127.071 22.7811 127.102 22.88 127.113 22.9841C127.165 23.0048 127.217 23.0254 127.269 23.0461C127.322 23.0668 127.369 23.0874 127.41 23.1081C127.494 23.1495 127.593 23.17 127.707 23.1696C127.843 23.19 127.978 23.1322 128.113 22.9964C128.258 22.85 128.383 22.7715 128.487 22.7607C128.612 22.7186 128.753 22.6973 128.909 22.6968C129.044 22.6963 129.164 22.6647 129.268 22.6018C129.33 22.5495 129.387 22.4972 129.439 22.445C129.491 22.3927 129.538 22.3405 129.579 22.2883C129.642 22.1943 129.756 22.121 129.922 22.0683C130.255 21.9839 130.432 21.9156 130.453 21.8634C130.463 21.8217 130.536 21.7434 130.671 21.6283C130.744 21.576 130.811 21.5237 130.873 21.4714C130.946 21.419 131.009 21.372 131.061 21.3301C131.144 21.2569 131.284 21.1575 131.481 21.0318C131.689 20.9269 131.809 20.864 131.84 20.8431C131.871 20.8222 131.96 20.7489 132.105 20.6234C132.209 20.571 132.303 20.5186 132.386 20.4662C132.479 20.4034 132.562 20.3406 132.635 20.2779C132.749 20.1733 132.916 20.0582 133.134 19.9324C133.384 19.8274 133.519 19.7645 133.54 19.7436C133.571 19.7122 133.591 19.6757 133.602 19.634C133.612 19.5923 133.726 19.5034 133.944 19.3672C134.017 19.2107 134.11 19.075 134.224 18.96C134.276 18.9077 134.333 18.8502 134.396 18.7875C134.458 18.7144 134.525 18.6361 134.598 18.5525C134.733 18.3958 134.863 18.2703 134.987 18.1762C135.133 18.0611 135.252 17.9565 135.346 17.8624C135.387 17.831 135.439 17.784 135.501 17.7213C135.564 17.6586 135.636 17.6219 135.72 17.6112C135.782 17.5589 135.834 17.5118 135.876 17.47C135.928 17.4282 135.974 17.3863 136.016 17.3445C136.057 17.3027 136.104 17.2557 136.156 17.2034C136.218 17.1511 136.291 17.0884 136.374 17.0152L136.53 16.8584C136.602 16.7853 136.654 16.7434 136.686 16.7329C136.779 16.7326 136.847 16.7636 136.889 16.8259C136.941 16.8883 137.009 16.9193 137.092 16.919C137.082 17.0545 137.072 17.1639 137.062 17.2472C137.063 17.3306 137.063 17.3931 137.063 17.4347C137.063 17.5181 137.043 17.5963 137.001 17.6693C136.877 17.8677 136.737 17.9723 136.58 17.9832C136.424 18.0046 136.305 18.1196 136.222 18.3282C136.16 18.2868 136.081 18.2766 135.988 18.2978C135.894 18.3189 135.826 18.3504 135.785 18.3922C135.827 18.465 135.848 18.5378 135.848 18.6107C135.848 18.6524 135.859 18.7253 135.88 18.8294C135.496 19.2161 135.247 19.519 135.133 19.7382C134.874 20.0099 134.739 20.1614 134.729 20.1927L134.697 20.2396L134.448 20.4905C134.157 20.7206 133.939 20.9401 133.794 21.149C133.66 21.3473 133.441 21.5356 133.14 21.7137C132.911 21.8811 132.756 22.0067 132.672 22.0903C132.631 22.1321 132.579 22.1843 132.517 22.2471C132.454 22.2993 132.382 22.3621 132.299 22.4353C132.247 22.4876 132.169 22.5764 132.065 22.7017C131.961 22.8271 131.873 22.9159 131.8 22.9682C131.665 23.0729 131.525 23.1671 131.38 23.2509C131.265 23.3138 131.146 23.4184 131.021 23.5646C130.72 23.7011 130.496 23.8685 130.351 24.0669C130.216 24.2444 130.014 24.4222 129.743 24.6002C129.556 24.7259 129.302 24.883 128.979 25.0716C128.657 25.2602 128.382 25.3965 128.153 25.4806C128.121 25.4911 128.09 25.5017 128.059 25.5122C128.028 25.5227 128.002 25.5332 127.981 25.5437C127.96 25.5542 127.934 25.5647 127.903 25.5752C127.872 25.5857 127.841 25.5963 127.809 25.6068C127.642 25.5032 127.481 25.3996 127.324 25.2959C127.167 25.1923 127.037 25.0469 126.932 24.8598C126.733 24.7146 126.582 24.6109 126.478 24.5488C126.352 24.4763 126.243 24.3933 126.149 24.2999C126.044 24.1232 125.934 23.9465 125.819 23.7698C125.704 23.5931 125.578 23.4164 125.442 23.2398C125.17 22.8761 124.965 22.481 124.829 22.0544C124.797 22.0024 124.771 21.9139 124.75 21.789L124.702 21.4923C124.681 21.409 124.659 21.331 124.638 21.2581C124.617 21.1853 124.596 21.1177 124.575 21.0552C124.533 20.9512 124.522 20.795 124.542 20.5866C124.542 20.4408 124.562 20.3053 124.603 20.1801C124.624 20.1071 124.645 20.0342 124.665 19.9612C124.686 19.8778 124.706 19.7944 124.727 19.711C124.768 19.5754 124.814 19.445 124.866 19.3199C124.918 19.1843 124.969 19.0539 125.021 18.9287C125.145 18.647 125.233 18.3759 125.284 18.1153C125.407 17.6774 125.541 17.2603 125.686 16.8639C125.717 16.7909 125.743 16.6919 125.763 16.5668C125.773 16.473 125.83 16.4051 125.934 16.3631C126.016 15.9461 126.15 15.5446 126.336 15.1586C126.523 14.7725 126.709 14.4021 126.895 14.0473C127.009 13.8282 127.118 13.6091 127.221 13.39C127.324 13.1604 127.428 12.9309 127.531 12.7014C127.635 12.4719 127.738 12.2476 127.841 12.0285C127.945 11.799 128.053 11.5746 128.167 11.3555C128.177 11.1263 128.26 10.9177 128.415 10.7296C128.425 10.5213 128.507 10.297 128.663 10.0569C128.818 9.81681 128.922 9.5925 128.973 9.384C128.744 9.32227 128.489 9.31793 128.207 9.37097C127.926 9.424 127.682 9.47171 127.474 9.51408C127.099 9.52577 126.703 9.52711 126.286 9.51811C126.213 9.50794 126.14 9.49777 126.067 9.4876C126.005 9.46698 125.937 9.45158 125.864 9.44141C125.728 9.41062 125.598 9.39544 125.473 9.39586C125.286 9.40692 125.145 9.39177 125.051 9.35042C124.947 9.29869 124.848 9.29382 124.754 9.3358C124.462 9.08679 124.164 8.86905 123.861 8.68257C123.548 8.49614 123.344 8.25724 123.25 7.96589C123.249 7.9034 123.28 7.85121 123.343 7.80933C123.426 7.74655 123.478 7.7047 123.499 7.6838C123.675 7.63112 123.863 7.61485 124.061 7.63502C124.259 7.64476 124.425 7.60774 124.561 7.52395C124.863 7.56459 125.17 7.54271 125.482 7.45832C125.763 7.37403 126.06 7.34178 126.372 7.36155C126.414 7.36141 126.477 7.37162 126.56 7.39217C126.643 7.41272 126.706 7.42292 126.748 7.42278C126.852 7.43284 126.94 7.43254 127.013 7.42188C127.055 7.41132 127.097 7.40076 127.138 7.39021C127.18 7.37965 127.227 7.36907 127.279 7.35848C127.404 7.33722 127.539 7.33676 127.685 7.3571C127.831 7.37744 127.977 7.37695 128.122 7.35562C128.424 7.33376 128.753 7.35869 129.107 7.4304C129.493 7.50201 129.831 7.48524 130.123 7.38009C130.174 7.23408 130.226 7.08807 130.277 6.94206C130.339 6.7856 130.406 6.63433 130.479 6.48825C130.624 6.18567 130.732 5.88843 130.804 5.59652C130.887 5.47123 130.97 5.33033 131.053 5.17379C131.135 5.01726 131.197 4.86601 131.239 4.72004L131.534 4.21903C131.575 4.15639 131.617 4.09375 131.658 4.03111C131.7 3.96847 131.746 3.90581 131.798 3.84313C131.943 3.54056 132.051 3.25373 132.123 2.98265C132.164 2.83668 132.206 2.6907 132.247 2.54473C132.298 2.3883 132.355 2.22665 132.417 2.05978C132.552 1.91348 132.687 1.75157 132.822 1.57403C132.956 1.39648 133.091 1.20332 133.226 0.994526C133.382 1.01483 133.502 0.972757 133.585 0.868308C133.678 0.763824 133.819 0.773764 134.007 0.898128C134.007 0.960627 134.033 1.01783 134.086 1.06974C134.138 1.12164 134.143 1.19975 134.102 1.30406C134.311 1.51168 134.447 1.69872 134.51 1.86518C134.552 2.0317 134.537 2.22446 134.465 2.44346C134.393 2.66245 134.409 2.86552 134.514 3.05267C134.556 3.14628 134.567 3.2452 134.546 3.34944C134.526 3.46409 134.537 3.5526 134.579 3.61495C134.631 3.72936 134.689 3.83333 134.752 3.92687C134.825 4.03079 134.862 4.16608 134.862 4.33275C134.862 4.39525 134.847 4.47342 134.816 4.56728C134.785 4.66114 134.749 4.76022 134.708 4.86452C134.636 5.17727 134.574 5.39623 134.523 5.52141C134.502 5.58398 134.481 5.65175 134.461 5.72474C134.44 5.78731 134.42 5.85509 134.399 5.92808C134.254 6.10565 134.181 6.21528 134.181 6.25694C134.181 6.28819 134.171 6.3351 134.151 6.39767C134.119 6.46028 134.088 6.5333 134.058 6.61674C134.026 6.68976 133.99 6.76801 133.949 6.85148C133.908 6.93496 133.871 7.01321 133.84 7.08623C133.809 7.15925 133.778 7.22186 133.747 7.27404Z" fill="#1E0909"/>
</svg>
